<svg width="150" height="150" viewBox="0 0 150 150" fill="none" xmlns="http://www.w3.org/2000/svg">
<g clip-path="url(#clip0_1020_27749)">
<circle cx="74.8292" cy="75.4174" r="74.5826" fill="#DE122B"/>
<mask id="mask0_1020_27749" style="mask-type:alpha" maskUnits="userSpaceOnUse" x="0" y="0" width="150" height="150">
<circle cx="74.8292" cy="75.4174" r="74.5826" fill="#DE122B"/>
</mask>
<g mask="url(#mask0_1020_27749)">
<path d="M73.8987 41.1014C73.6523 41.1539 73.5761 41.6403 73.3325 41.8151L73.2455 41.7013C72.9787 42.0901 72.6497 42.3847 72.2682 42.6089C72.0967 42.7657 71.833 42.844 71.914 43.2207C72.1183 43.2581 72.2126 43.3498 72.0401 43.5885C71.8851 43.6875 71.743 43.7958 71.5511 43.8774C71.4739 43.5943 71.3944 43.3135 71.3531 43.0136C71.3244 42.9792 71.2795 42.9572 71.2294 42.933L71.2197 42.8406C71.2924 42.7929 71.3973 42.7419 71.3863 42.6362C71.375 42.5305 71.2389 42.4966 71.159 42.5237C71.1623 42.5554 71.1329 42.5611 71.1081 42.5637L71.1045 42.5294C71.129 42.5001 71.1389 42.475 71.1353 42.4407C71.1304 42.3932 71.0943 42.3595 71.0513 42.356L71.0408 42.2556L71.0953 42.2499L71.0917 42.2156L71.0372 42.2213L71.0311 42.1631L70.9964 42.1668L71.0017 42.2169L70.9471 42.2227L70.9507 42.257L71.0053 42.2513L71.0158 42.3517C70.9761 42.3558 70.9461 42.4044 70.9511 42.4519C70.9544 42.4836 70.9822 42.5101 70.9991 42.5271L71.0029 42.564C70.9759 42.5692 70.9484 42.5697 70.9241 42.5295C70.7779 42.5448 70.7658 42.6449 70.7669 42.7035C70.773 42.7617 70.8532 42.8334 70.9242 42.8661L70.9339 42.9586C70.8565 43.0094 70.7883 43.0512 70.7357 43.1235C70.7208 43.2212 70.7561 43.3191 70.8058 43.4108C70.8022 43.3765 70.8234 43.3395 70.8367 43.3221C70.8774 43.2804 70.9429 43.2603 71.0005 43.3317C71.0265 43.5801 71.1326 43.8524 70.9743 44.0391C70.736 43.9892 70.5015 43.9363 70.3573 43.6867C70.6109 43.3821 70.3168 43.2987 70.1928 43.1432C69.5398 42.6737 68.8572 42.6395 68.2877 42.1416L68.2563 42.225C68.0913 42.1087 67.7939 41.855 67.7254 41.921C67.6549 41.9898 67.8304 42.1819 67.9289 42.3098C67.7324 42.5867 68.0418 42.6222 68.1391 42.7622C67.9959 42.9508 68.2151 43.0585 68.3388 43.1868C68.3039 43.3321 68.2866 43.4784 68.6127 43.5535C68.507 43.7649 68.7005 43.8182 68.8631 43.8869C68.8284 44.0588 68.9122 44.1168 69.0369 44.1359C69.0863 44.2242 69.1042 44.3719 69.2413 44.2935C69.2846 44.3958 69.3381 44.4757 69.4769 44.4131C69.5223 44.6087 69.6262 44.6192 69.7772 44.5126C69.8141 44.6263 69.8521 44.7024 69.9289 44.6703C69.9419 44.8052 69.7876 45.0674 70.0221 45.0343C70.0616 45.1718 70.0572 45.3915 70.218 45.2302C70.2849 45.3194 70.3407 45.4928 70.451 45.278C70.513 45.3436 70.5783 45.489 70.6408 45.2955C70.7052 45.3369 70.7127 45.5525 70.8707 45.3143C70.9228 45.3088 70.9454 45.5971 70.9367 45.6095L71.0133 45.5748L71.029 45.7254C70.708 45.8017 70.7241 46.011 70.7719 46.2336C70.7744 46.2358 70.7722 46.236 70.7719 46.2336C70.2912 46.6207 70.0098 47.2624 70.0819 47.9521C70.1879 48.9659 71.0237 49.7177 71.968 49.6742L71.986 49.8459C71.8164 49.9251 71.7814 49.9501 71.7839 50.046C71.7939 50.1412 71.8707 50.1572 71.9561 50.207L72.0234 50.395L72.1299 50.9592C72.0253 51.061 72.0573 51.1512 72.183 51.2267L72.4026 52.7998L72.0372 53.1756C71.9188 53.3616 71.8008 53.553 71.6592 53.6898C70.9712 53.2299 70.6196 53.7211 70.469 54.044C70.3156 54.3747 70.4237 55.8639 70.5912 56.7704C70.9552 58.1911 71.1999 59.6382 71.4405 61.0885C71.1109 61.3821 70.0772 62.131 69.7405 62.3088L69.7093 62.0099L69.8652 61.3685L69.7921 60.9087C69.5502 60.7524 69.6447 60.6971 69.7291 60.6421C69.8328 60.3401 69.6288 60.0667 69.4178 59.7976L69.2096 59.6752C68.8817 59.5946 68.4977 59.3086 68.3769 60.0293C68.3344 59.8869 68.1581 59.8305 67.9986 59.767C67.9926 59.9493 67.9179 60.1446 68.1588 60.268L68.1547 60.4687C67.9118 60.8059 67.9907 60.9854 68.0151 61.1949C68.0436 61.4671 68.0858 61.6313 68.1038 61.8041C68.0846 62.2909 68.0502 62.7772 68.0334 63.2635C66.4981 63.9845 63.7442 64.6261 63.1717 64.4263L63.1884 64.323L63.0774 64.2919C62.6968 63.4581 62.4593 62.5828 61.912 61.7896C61.839 61.5226 61.6103 61.2764 61.427 61.0207C61.0106 60.8105 60.6068 60.342 60.1802 60.3817C59.9718 60.4012 59.7601 60.5379 59.5385 60.8875L59.3108 61.0342C59.0555 60.9647 59.0391 61.0358 58.9808 61.1034L58.8144 61.07L58.8285 61.2048C59.0467 61.1826 59.107 61.3279 59.2035 61.4389C59.2702 61.5975 59.2704 61.743 59.2503 61.8867C59.14 62.0532 59.0524 62.1983 59.0729 62.2504C59.1172 62.3393 59.1294 62.4315 59.1291 62.525L59.3581 62.7741L59.405 63.2222C59.5324 63.5786 59.6444 63.9305 59.3871 64.2018C59.4552 64.3255 59.5298 64.4641 59.628 64.6369C59.7096 64.6978 59.7308 64.8051 59.7703 64.895C59.9248 65.0791 60.0754 65.0047 60.224 64.9116C60.224 64.9116 60.7879 65.0397 60.8236 65.0359C60.8583 65.0323 60.821 65.274 60.821 65.274L60.8482 65.2711L60.8539 65.5649C60.6568 65.8366 60.4912 66.1152 60.4472 66.4489C60.3082 66.7252 60.3563 66.8981 60.3854 67.0807L60.6217 67.8541C60.7638 68.0156 60.7742 68.4024 60.8209 68.6096C61.0663 69.2312 60.6593 69.3648 60.3705 69.5913L60.3388 70.1265C60.5462 70.6962 60.6063 71.3911 60.7219 72.0418C60.7914 72.299 60.8562 72.5593 60.8082 72.8667C61.039 73.4925 61.6063 73.7369 61.7528 73.2568C61.8987 72.7827 61.5456 72.522 61.3855 72.2601C61.2538 72.2231 61.2582 72.049 61.2623 71.9207C60.9994 70.9876 60.9798 70.5369 61.1511 70.3293C61.1846 70.2189 61.1794 70.0966 61.1609 69.9687C61.4127 70.0038 61.5096 69.617 61.647 69.5872C61.783 69.5463 61.8497 69.7049 61.9716 69.6601C62.2263 69.5026 62.5671 69.7528 62.8091 69.479C62.7234 69.3544 62.5255 69.237 62.5625 69.1095L63.0503 69.1306C63.169 69.4989 63.3934 69.7428 63.6005 70.0078C63.6005 70.0078 63.7644 70.928 63.7289 70.972C63.5466 71.1941 63.8744 72.0528 63.8848 72.1276C64.0132 72.6134 63.9885 73.1196 63.9807 73.6199L64.053 74.0726C63.974 74.1797 63.8947 74.2601 63.8109 74.3356C63.8016 74.4862 63.7939 74.6283 63.7811 74.7699L58.5445 75.3174L58.5951 75.8009L56.9942 75.9683L57.1183 77.156L55.9975 77.2732L56.1217 78.4607L12.1266 83.0602L15.1071 86.3722L15.7301 92.3316L14.616 92.4481L14.7409 93.6427L10.2585 94.1113L8.14791 95.5325L10.5083 96.5008L10.6325 97.6883L15.4888 100.797L16.2368 107.951L13.9957 108.185L16.6115 111.535L22.2216 165.197L31.1671 164.262L30.7931 160.684L29.5541 159.606L24.1928 108.325L25.1821 107.014L35.248 105.961L36.5003 107.038L41.8616 158.32L40.859 159.632L41.2925 163.203L51.3054 162.156L50.9314 158.579L49.6791 157.502L44.3178 106.221L45.3204 104.908L57.6207 103.622L58.8662 104.7L64.2275 155.981L63.2318 157.293L63.6058 160.87L73.6849 159.816L73.3109 156.239L72.0587 155.163L66.6974 103.881L67.6998 102.569L87.8245 100.465L89.07 101.542L94.4312 152.824L93.4356 154.135L93.8096 157.712L103.882 156.659L103.508 153.082L102.269 152.004L96.908 100.723L97.897 99.4116L110.197 98.1257L111.45 99.2024L116.811 150.484L115.808 151.796L116.182 155.373L126.255 154.32L125.881 150.743L124.636 149.666L119.274 98.3844L120.27 97.0726L130.336 96.0203L131.588 97.097L136.95 148.378L135.947 149.691L136.321 153.268L145.273 152.332L139.663 98.6705L141.523 94.8527L139.288 95.0863L138.54 87.9322L142.642 83.8871L142.518 82.6996L144.634 81.2633L142.268 80.3102L137.792 80.7781L137.668 79.5835L136.547 79.7006L135.924 73.7412L138.102 69.8899L94.1629 74.4836L94.0387 73.2961L92.9112 73.414L92.7871 72.2262L90.6458 72.4501L90.5953 71.9665L83.4575 72.7128L82.8431 67.0758L82.9844 67.061C83.0365 67.32 83.1272 67.5646 83.2961 67.7903C83.3739 68.2937 83.4877 68.7832 83.5098 69.3066L83.4052 69.7201L83.6617 70.2323C83.6334 70.3688 83.5841 70.4728 83.5194 70.549L83.719 71.3552C83.8699 71.4089 84.0347 71.413 84.1431 71.6055L84.1319 72.1458C84.3636 72.4923 84.674 72.5613 85.0497 72.4093C85.0259 72.1821 84.9892 72.0705 85.0056 71.724L84.8342 71.4988L84.8233 71.1548C84.9695 71.0193 85.0833 70.8586 85.002 70.5394C84.978 70.3095 84.8859 70.1001 84.7594 69.8961C84.6808 69.696 84.6765 69.4867 84.655 69.2817C84.7658 68.6399 84.7976 68.0647 84.8256 67.4952C84.9478 67.3702 85.0763 67.4343 85.2019 67.4826C85.2545 67.9862 85.731 68.5919 85.269 68.9637L85.1505 69.5082C85.4499 70.3109 85.3663 71.1405 85.2204 71.9737C85.267 72.1798 85.2924 72.4224 85.4157 72.4998L86.6498 72.3708L86.5883 72.1181L86.2304 71.789C86.1983 71.4764 86.1643 71.1573 86.1821 70.8233C86.0204 69.9005 86.1095 69.4584 86.1866 68.9968C86.6146 68.4728 86.5605 68.3268 86.6369 68.08C86.8865 67.8615 86.8561 67.5014 86.8789 67.1705L87.3287 66.8286C87.4821 66.7137 87.1547 67.3695 87.2853 67.4443C87.4186 67.5212 87.4527 67.2238 87.5668 67.1691C87.8653 67.1699 88.1201 67.2635 88.3696 67.3656L88.4878 68.4963L88.2722 69.0798L88.3197 69.5348C87.7125 70.119 87.9685 70.7886 88.2962 70.7955C88.6297 70.8034 88.8262 70.7389 88.8645 69.9739L88.7582 69.676C88.8639 69.5608 88.9061 69.3889 88.9458 69.2178C88.9428 68.6617 88.8285 68.0956 89.069 67.5586L89.0331 66.9512C88.7574 66.7236 88.6336 66.3657 88.4918 66.0301C88.5355 65.8011 88.4789 65.3086 88.4836 65.3049C88.5442 65.2611 88.6193 64.9971 88.5505 64.6509C88.605 64.501 88.6767 64.3481 88.4992 64.1602C88.5023 63.8784 88.3184 63.6529 88.152 63.42C88.0288 63.2966 87.9792 63.0863 87.9279 62.8827L87.8149 62.3771C87.9346 62.1563 88.0197 61.939 88.0437 61.7276C88.1588 61.6782 88.2579 61.5716 88.3178 61.318C88.393 61.222 88.4662 61.1075 88.535 60.943C88.4837 60.8602 88.3917 60.8431 88.414 60.6249C88.4028 60.278 88.3405 59.9213 88.4069 59.5978L88.5278 59.2688C88.6524 59.0851 88.6434 58.9021 88.4065 58.7208L88.3978 58.3982L88.4891 58.1216C88.6061 57.8983 88.8296 57.7088 88.6627 57.3846C88.5303 57.6041 88.381 57.6545 88.2351 57.7456C88.1211 57.6373 88.057 57.4805 87.8066 57.5171C87.8869 57.303 87.8688 57.2258 87.8041 57.2299C87.8041 57.2297 87.804 57.2294 87.7793 57.2325C87.7199 57.2387 87.632 57.3094 87.5259 57.3872C87.2757 57.4535 86.993 57.4429 86.8232 57.6984C86.5662 57.7734 86.358 57.9581 86.269 58.3964C85.8647 58.7367 85.7558 59.066 85.7736 59.3971C85.3773 60.0758 85.4859 60.8346 85.4615 61.5719L85.429 62.1003L85.381 62.4075L85.3414 62.5558L85.3441 62.5823C84.2058 62.9016 83.0562 62.9604 81.9073 62.9923C81.0619 62.6899 80.2086 62.3467 79.3899 62.1341L79.3855 62.0918L79.4103 62.0892C79.3659 61.9042 79.3744 61.7455 79.4192 61.5992C79.4811 61.4966 79.5152 61.3674 79.5275 61.2214C79.5126 61.0787 79.497 60.9297 79.5342 60.782C79.4221 60.7163 79.3372 60.5996 79.2648 60.4581C79.3047 60.2162 79.3018 59.9489 79.2697 59.6667C79.3115 59.3952 79.5092 59.1413 79.2107 58.8389C79.141 58.6992 79.0781 58.553 78.9463 58.4424C79.043 58.0492 79.1085 57.6935 78.6194 58.1533C78.3988 57.8892 78.155 57.8308 77.8582 58.1608L77.6874 58.013C77.5354 57.2067 77.1833 55.037 76.9865 54.3406C76.7001 53.3267 76.0479 52.4599 75.3548 53.5693C75.5731 54.0274 75.613 54.4816 75.098 54.919C75.0734 54.9233 75.0608 54.9223 75.0435 54.9247C74.9518 54.9343 74.9069 54.9123 74.8661 54.9058L74.8389 54.9087C74.8389 54.9087 74.8141 54.9113 74.8089 54.8851C74.7491 54.7204 74.6232 54.6667 74.4856 54.6312C74.3264 54.5463 74.2872 54.3394 74.2095 54.1712C74.2667 53.9756 74.3172 53.7876 74.2705 53.6039C74.347 53.5692 74.3434 53.5108 74.3343 53.4476C74.3897 53.3777 74.4367 53.3007 74.4353 53.1913L74.5741 53.1768L74.5055 53.0477L74.5961 53.0035L74.5476 52.9231L74.6043 52.8905L74.5932 52.7848L74.5064 52.7939L74.6157 52.689L74.5356 52.6413L74.5845 52.4625L74.4838 52.5291L74.4025 52.2072L74.388 52.4037L74.1384 52.1496L74.1098 52.2114L73.9745 52.0679L73.9872 52.1895L73.9079 52.1978L73.8996 52.1185L73.6256 52.2059L73.6416 52.1188L73.4169 52.2224L73.4102 52.159L73.1738 52.3493L73.1922 52.2619L72.8927 52.4936L72.8574 52.3958L72.7399 52.6378L72.6297 52.6867L72.4369 51.2259C72.5131 51.1164 72.5343 51.0074 72.3824 50.9442L72.3229 50.375L72.3432 50.1859C72.3933 50.1139 72.4735 50.0654 72.4619 49.9785C72.4514 49.8887 72.4125 49.8661 72.2324 49.8449L72.1891 49.6704C73.0794 49.4812 73.702 48.5957 73.599 47.6109C73.5039 46.7009 72.7925 46.035 72.1827 45.9325L72.1678 45.7899C72.2757 45.7439 72.3656 45.836 72.4651 45.8603C72.492 45.8308 72.5899 46.0235 72.5993 46.0412C72.602 46.0677 72.6246 45.8997 72.583 45.8854C72.5347 45.8316 72.4648 45.8336 72.438 45.7215C72.3185 45.7047 72.2026 45.6981 72.078 45.631C72.0736 45.5887 72.0152 45.5093 72.1058 45.5132L72.0926 45.3864L72.1295 45.3558C72.1184 45.2448 72.0697 45.119 72.0247 45C72.0453 44.9578 72.0687 44.942 72.0915 44.9209C72.1552 44.9783 72.2155 45.0281 72.2378 44.9056C72.3017 44.9897 72.3634 44.9806 72.4284 44.8589C72.5033 44.9526 72.5631 44.9731 72.5892 44.7914C72.6566 44.8378 72.7305 44.9209 72.7676 44.7006C72.8772 44.7185 72.9778 44.7214 72.9386 44.5385C73.0537 44.5612 73.0661 44.4878 73.0192 44.3511C73.133 44.3125 73.0707 44.2202 73.0365 44.1329C73.0806 44.099 73.0613 44.0342 73.0558 43.9813C73.1811 44.0056 73.156 43.9334 73.1444 43.8706C73.2364 43.8877 73.2808 43.8563 73.2655 43.735C73.4055 43.7792 73.3658 43.6631 73.3704 43.5878C73.4894 43.5754 73.4808 43.4935 73.4659 43.3989C73.5139 43.3538 73.5518 43.3097 73.5083 43.2288C73.6022 43.1442 73.6333 43.0581 73.5616 42.9721C73.5911 42.8942 73.7257 42.8641 73.574 42.7064C73.6116 42.5875 73.8146 42.5183 73.6565 42.3454C73.7581 42.2146 73.7639 42.1018 73.6885 42.0041C73.7515 41.84 73.953 41.6124 73.7703 41.5644C73.6901 41.5408 73.8347 41.2692 73.8644 41.1229C73.8644 41.1226 73.8397 41.1252 73.8372 41.1258L73.8982 41.1014L73.8987 41.1014ZM70.9551 42.6171C70.9799 42.6145 70.9873 42.6138 70.9975 42.6394C71.0333 42.6704 71.0433 42.7655 71.0147 42.8032C70.9927 42.8322 70.953 42.8364 70.9353 42.8115C70.8995 42.7805 70.8896 42.6854 70.9182 42.6477C70.9182 42.6477 70.9402 42.6187 70.9551 42.6171L70.9551 42.6171ZM71.1806 42.5936C71.2054 42.591 71.2128 42.5902 71.2231 42.6158C71.2589 42.6468 71.2688 42.7419 71.2402 42.7796C71.2182 42.8086 71.1785 42.8128 71.1609 42.7879C71.1251 42.757 71.1151 42.6618 71.1437 42.6241C71.1437 42.6241 71.1658 42.5951 71.1807 42.5936L71.1806 42.5936ZM71.3081 45.4196C71.3476 45.5571 71.3373 45.699 71.352 45.8393C71.3132 45.8033 71.2683 45.7813 71.2366 45.6938L71.2261 45.5934C71.2545 45.5289 71.2426 45.4394 71.3279 45.4171L71.3081 45.4196ZM71.0601 45.8195C71.0898 45.8159 71.1245 45.8128 71.1623 45.8382C71.205 45.9593 71.2069 46.0259 71.145 46.0564C71.0846 45.9585 71.0229 45.9676 70.9676 46.0375C70.9473 46.1305 70.9093 46.1745 70.8561 46.1934L70.8451 46.0877C70.9012 45.9536 70.9612 45.8325 71.0678 45.8214L71.0601 45.8195V45.8195ZM71.8309 46.4217C71.9623 46.408 72.0875 46.4456 72.2085 46.4838C72.6907 46.6337 73.0655 47.0718 73.1248 47.6389C73.1972 48.3315 72.7771 48.9412 72.1566 49.0843L72.1417 48.9416L72.4924 48.8783C72.3556 48.5768 72.1498 48.3833 72.0926 47.9568C72.4389 47.9473 72.7343 48.0713 73.034 48.1891L72.8915 47.0895C72.6798 47.2693 72.5201 47.4706 72.0408 47.5308C71.9654 47.145 72.106 46.8124 72.2131 46.4705L71.8499 46.5432L71.8358 46.4084L71.8309 46.4217V46.4217ZM71.5441 46.4517C71.5502 46.4991 71.5541 46.5468 71.5599 46.6023L71.1236 46.6853C71.3818 46.9979 71.5604 47.3209 71.5759 47.6588C71.217 47.6696 70.9746 47.5079 70.6982 47.391L70.8355 48.4408C71.0741 48.2663 71.311 48.0831 71.6418 48.0258C71.7397 48.3634 71.589 48.6954 71.5188 49.0308L71.8698 48.9674C71.8756 49.0122 71.88 49.0651 71.8839 49.1021C71.2306 49.1116 70.6706 48.5919 70.5968 47.8853C70.5256 47.2046 70.9295 46.6001 71.5317 46.4431L71.5441 46.4517V46.4517ZM72.5334 53.7817L72.6497 54.6539C72.4266 54.6773 72.2372 54.6971 72.0399 54.691C72.0399 54.691 71.9514 54.5881 71.9325 54.574C71.8881 54.5332 72.1906 53.8199 72.2554 53.8572C72.3471 53.8476 72.4361 53.8116 72.5428 53.7684L72.5334 53.7817V53.7817ZM72.8299 53.8441L72.9166 53.8351C72.9337 53.9882 72.9503 54.1355 73.0031 54.3506C72.9877 54.4431 72.9527 54.4921 72.9241 54.5539L72.8242 53.8381L72.8299 53.8441V53.8441ZM76.1181 59.2374C76.2407 59.3554 76.2223 59.4909 76.2532 59.6186L76.4195 59.6519L76.8032 60.6111C76.6319 60.5302 76.4482 60.48 76.2648 60.4297L76.0095 59.5935C76.1061 59.5354 76.1215 59.3948 76.12 59.2369L76.1181 59.2374ZM72.6763 60.2442L72.6957 60.4291C72.6371 60.5875 72.56 60.6651 72.4754 60.7193L72.4434 60.4133L72.6764 60.2447L72.6763 60.2442ZM71.4655 61.3052C71.466 61.3051 71.4677 61.3316 71.4682 61.3316C70.8428 61.9406 70.3463 62.6581 69.9221 63.4414L69.7444 62.4607C70.3142 62.0891 70.8771 61.7335 71.465 61.3101L71.4655 61.3052V61.3052ZM60.6698 63.699C60.6946 63.6964 60.7924 64.1764 60.7761 64.1409C60.7433 64.0669 60.5916 64.1015 60.566 64.1923C60.5181 64.1652 60.5048 64.0865 60.4894 64.0347C60.5185 63.9061 60.5981 63.8043 60.6698 63.6992L60.6698 63.699V63.699ZM68.0463 63.3665C68.0412 63.5807 68.0383 63.7936 68.0456 64.0066L67.9853 64.1491C66.6475 64.3718 65.272 64.5343 63.9897 64.5027C65.4079 64.301 66.7598 63.9271 68.0452 63.3671L68.0464 63.3664L68.0463 63.3665ZM60.7047 64.1607L60.7232 64.3377C60.6439 64.346 60.629 64.2995 60.6136 64.2477C60.6287 64.1526 60.6607 64.1706 60.6995 64.1586L60.7047 64.1607ZM79.4502 62.281C80.1957 62.4489 80.9129 62.7377 81.6356 62.9942C80.9555 62.9317 80.2741 62.8801 79.5832 62.713C79.5832 62.713 79.5804 62.6865 79.5545 62.6786C79.6374 62.5604 79.5892 62.4826 79.5776 62.3959L79.4812 62.4328L79.4415 62.2927L79.4502 62.281ZM60.5962 64.3458C60.6392 64.3974 60.6739 64.4178 60.7957 64.3837C60.8191 64.6083 60.866 64.8171 60.8221 64.877C60.7244 64.8525 60.6227 64.839 60.5442 64.7992C60.6573 64.6591 60.6556 64.4993 60.5922 64.3483L60.5962 64.3458ZM87.9115 61.669C87.8916 61.8153 87.874 61.9577 87.7773 62.064C87.7671 61.9662 87.7321 61.871 87.7236 61.7891C87.783 61.7348 87.8439 61.6937 87.9064 61.6685L87.9115 61.669V61.669ZM63.1663 64.5435C64.8033 64.6127 66.2679 64.524 67.944 64.2523L68.0459 64.2684L68.0109 64.5808C67.7817 64.8951 67.5899 65.2376 67.4678 65.6444C67.2473 65.9319 67.3787 66.1337 67.4274 66.3602C67.3829 66.8211 67.4404 67.2756 67.5447 67.721L67.7298 68.1977C67.4049 68.0767 66.8395 67.8161 66.5379 67.6323C66.5373 67.6057 66.5351 67.6059 66.5582 67.5874C66.3825 66.2424 66.4279 64.7109 64.3743 64.9545C64.0103 64.9578 63.666 64.9404 63.43 64.8235L63.168 64.5707L63.1653 64.5442L63.1662 64.5434L63.1663 64.5435ZM79.6627 62.8188C80.3171 62.9881 81.0111 63.0259 81.678 63.0684C82.2128 63.2128 82.8932 63.4299 83.2777 63.469C83.3746 63.4856 83.5082 63.4449 83.6551 63.4029C83.4541 63.5655 83.2863 63.7577 83.1877 63.9622C83.1657 63.9913 83.2414 64.0207 83.2414 64.0207L83.1724 64.271C83.0612 64.67 83.0087 65.0785 82.9896 65.4906L81.4846 66.7696L81.3266 66.8155C81.2866 66.4331 81.3502 66.0111 81.1628 65.704C81.0798 64.9105 81.0202 64.1004 80.8748 63.333L80.2251 63.3742L80.207 63.6566C80.0038 63.2951 79.8337 63.0599 79.6598 62.808L79.6627 62.8188V62.8188ZM85.3286 62.6362L85.3314 62.6626C85.2301 62.724 85.092 62.7838 84.9519 62.8385C84.7781 62.8543 84.5674 62.9162 84.3492 63.0084C84.3472 63.0098 84.3491 63.0072 84.3492 63.0084C84.227 63.0613 84.0986 63.1254 83.9778 63.1968C83.7542 63.311 83.5242 63.4072 83.3063 63.3525L82.0536 63.0451L82.0139 63.0493C83.1286 63.0102 84.242 62.9846 85.3432 62.6451L85.3286 62.6362L85.3286 62.6362ZM85.292 62.7416L85.2507 62.8741C85.209 62.8517 85.16 62.8382 85.0991 62.8311C85.1732 62.7967 85.2376 62.7659 85.2924 62.7388L85.292 62.7416ZM82.9865 65.8368C82.9826 66.159 82.9888 66.4819 83.0002 66.8061C83.0001 66.8084 83.0002 66.8061 83.0002 66.8061L81.5953 66.9797L82.9871 65.8421L82.9865 65.8368V65.8368ZM66.5145 67.861C66.9916 68.1223 67.4061 68.2686 67.8111 68.394L67.8147 68.4284L66.377 68.544C66.4259 68.3171 66.4749 68.0908 66.5086 67.8616L66.5145 67.861ZM82.7186 67.0796L83.3479 72.7151L82.0136 72.8546L81.8149 71.1933L81.5711 68.8609L81.7247 68.8448L81.725 68.4636L82.0053 68.4343C82.0626 68.2627 82.0374 68.0941 81.9533 67.9367L81.673 67.966L81.5827 67.5582L81.4291 67.5743L81.3956 67.2543L82.6992 67.0806L82.7186 67.0798L82.7186 67.0796ZM66.3193 68.8315L66.8225 68.8056L67.3598 74.3999L66.3458 74.5059C66.2964 74.0553 66.1319 73.3227 66.239 73.2447C66.4632 73.1599 66.4934 72.9884 66.3702 72.7494C66.5786 72.3942 66.7417 72.0347 66.4378 71.5993C66.3641 71.1339 66.2899 70.6398 66.2081 70.1207L66.3147 70.1817C66.3337 69.9794 66.2482 69.8088 66.1434 69.6459C66.1981 69.3783 66.2604 69.1109 66.3224 68.8437L66.3193 68.8315L66.3193 68.8315ZM66.9559 68.7917L67.9191 68.7177C68.0951 69.4181 68.5591 69.9936 68.4297 70.8284C68.7808 71.459 68.953 72.1502 68.9885 72.8835C69.1201 73.2314 69.2075 73.5637 69.0374 73.8056C69.0771 73.9457 69.1223 74.0908 69.106 74.2226L67.4518 74.3956L66.9616 68.7964L66.9559 68.7918L66.9559 68.7917ZM64.9718 69.1006L65.0045 69.4135C64.8831 69.6185 64.8681 69.7622 64.8404 69.905L64.7594 69.7773L64.9719 69.1011L64.9718 69.1006L64.9718 69.1006V69.1006ZM69.9269 70.0563L70.1079 70.0374C70.3429 70.5836 70.1202 71.0418 70.4251 71.514C70.3855 71.7826 70.4805 72.0411 70.6018 72.2934C70.7129 72.5887 70.8111 72.9049 71.1149 72.9444L71.2249 73.9966L70.2376 74.0999L70.026 73.4894L69.9747 72.4236C69.9963 72.0551 69.9603 71.8067 69.9303 71.5441C70.0603 71.2294 70.0653 70.8699 69.8563 70.4518C69.7915 70.3116 69.7904 70.1817 69.9227 70.0567L69.9269 70.0563V70.0563ZM71.1227 70.0114C71.299 70.0197 71.4667 69.9488 71.6518 70.0416L71.7337 70.2494C71.6235 70.6816 71.7988 71.1113 71.9771 71.5468L72.1285 72.7316C72.0758 73.0184 72.0207 73.3063 72.1957 73.6376C72.177 73.7705 72.1092 73.8177 72.0542 73.8902L72.0892 73.9132L71.4286 73.9823L71.3186 72.9301C71.4786 72.8305 71.5497 72.6762 71.6061 72.5188C71.6419 72.2146 71.6227 71.9348 71.5654 71.6747C71.3802 71.1248 71.1497 70.5837 71.1159 70.018L71.1227 70.0114V70.0114ZM80.4325 69.0808L80.6531 69.0578L80.7928 69.1714L80.8605 69.3647L81.3535 72.9293L80.8664 72.9802L80.8167 72.5041C80.7003 72.5174 80.5983 72.5002 80.5991 72.412L80.553 71.2521C80.6913 70.8976 80.4776 70.7704 80.4057 70.5628C80.4547 70.3841 80.4482 70.154 80.3897 69.8817C80.5689 69.7027 80.4424 69.3553 80.4328 69.0718L80.4325 69.081L80.4325 69.0808ZM78.6634 69.3165C78.7436 69.6765 78.8146 70.0439 79.0153 70.3578L79.1593 70.8247C79.1264 71.3728 79.305 71.4516 79.3905 71.7424L79.2968 72.1403C79.515 72.3579 79.65 72.5823 80.0624 72.2392L80.0567 72.4482C80.1324 72.5257 80.1515 72.6119 80.0042 72.7128L80.0693 73.0725L78.4084 73.2461L78.3935 73.1034C78.4634 72.7654 78.4573 72.4672 78.341 72.2176C78.2364 71.5767 78.2515 70.9546 78.4094 70.3555C78.4543 70.066 78.2227 69.7913 78.3693 69.3964L78.6575 69.3155L78.6634 69.3165V69.3165ZM72.3996 69.9714L74.9656 70.005L75.3198 73.1529L75.1557 73.5723L72.7276 73.8262L72.7524 73.8236C72.6579 73.7347 72.5541 73.652 72.6305 73.3761L72.512 72.6985L72.4781 71.415C72.5807 70.935 72.6395 70.4496 72.4221 69.9688L72.3995 69.9714L72.3996 69.9714ZM77.2713 69.6117L77.3066 69.7095L77.1124 69.7939C76.9824 70.42 77.0617 70.8426 77.7494 70.662L77.8797 72.2441C77.8085 72.4973 77.8113 72.7637 77.9652 73.062L77.9088 73.2896L76.3612 73.4514L76.1054 72.9463L75.781 70.2989L75.9038 70.1792L75.877 69.9229L77.2675 69.6119L77.2713 69.6117V69.6117ZM65.2649 71.5211C65.344 71.5105 65.3484 71.6246 65.3616 71.7274C65.2961 71.6995 65.2575 71.618 65.2649 71.5211ZM64.4829 71.6536L64.5907 72.1093C64.8418 72.5938 65.0148 73.1556 64.8303 74.0901L64.866 74.4315C64.8071 74.5151 64.7011 74.5796 64.5986 74.6465L64.5061 74.2175L64.5156 72.9656L64.4033 71.8917L64.4985 71.652L64.4829 71.6536V71.6536ZM66.006 73.579L66.1519 74.5198L65.6919 74.5679L65.6205 73.8854C65.7794 73.7993 65.9239 73.7388 65.9997 73.5786L66.006 73.579ZM65.42 74.2944L65.4859 74.5894L65.3124 74.6075C65.3251 74.4887 65.3107 74.3513 65.42 74.2944Z" fill="white"/>
</g>
</g>
<defs>
<clipPath id="clip0_1020_27749">
<rect width="150" height="150" fill="white"/>
</clipPath>
</defs>
</svg>
