<svg width="20" height="20" viewBox="0 0 20 20" fill="none" xmlns="http://www.w3.org/2000/svg">
<g clip-path="url(#clip0_1048_27743)">
<mask id="mask0_1048_27743" style="mask-type:alpha" maskUnits="userSpaceOnUse" x="0" y="0" width="20" height="20">
<path d="M10 20C15.5228 20 20 15.5228 20 10C20 4.47715 15.5228 0 10 0C4.47715 0 0 4.47715 0 10C0 15.5228 4.47715 20 10 20Z" fill="#D9D9D9"/>
</mask>
<g mask="url(#mask0_1048_27743)">
<path d="M23 7L-3 5.5L-2 13.5L20 17L23 7Z" fill="#F22A22"/>
<path d="M21 7.5L0 6L1 -1.5L17 -2L21 7.5Z" fill="#2E2A29"/>
<g opacity="0.7" filter="url(#filter0_f_1048_27743)">
<path d="M14.5 14.5L5 11.5L-3 6L-2 13.5L20 17L14.5 14.5Z" fill="#7D3532"/>
</g>
<path d="M18.5 15.5C15.3 16.7 4.16667 14.3333 -1 13L1 21L9 25C13.5 21.3333 21.7 14.3 18.5 15.5Z" fill="#FFB111"/>
<g filter="url(#filter1_f_1048_27743)">
<path d="M12 19C8.8 20.2 4.66667 15.8333 -0.5 14.5L1 21L9 25C13.5 21.3333 15.2 17.8 12 19Z" fill="#A2720F"/>
</g>
</g>
</g>
<defs>
<filter id="filter0_f_1048_27743" x="-7" y="2" width="31" height="19" filterUnits="userSpaceOnUse" color-interpolation-filters="sRGB">
<feFlood flood-opacity="0" result="BackgroundImageFix"/>
<feBlend mode="normal" in="SourceGraphic" in2="BackgroundImageFix" result="shape"/>
<feGaussianBlur stdDeviation="2" result="effect1_foregroundBlur_1048_27743"/>
</filter>
<filter id="filter1_f_1048_27743" x="-4.5" y="10.5" width="22.1494" height="18.5" filterUnits="userSpaceOnUse" color-interpolation-filters="sRGB">
<feFlood flood-opacity="0" result="BackgroundImageFix"/>
<feBlend mode="normal" in="SourceGraphic" in2="BackgroundImageFix" result="shape"/>
<feGaussianBlur stdDeviation="2" result="effect1_foregroundBlur_1048_27743"/>
</filter>
<clipPath id="clip0_1048_27743">
<rect width="20" height="20" fill="white"/>
</clipPath>
</defs>
</svg>
