<svg width="100" height="100" viewBox="0 0 100 100" fill="none" xmlns="http://www.w3.org/2000/svg">
<g clip-path="url(#clip0_1097_27754)">
<mask id="mask0_1097_27754" style="mask-type:alpha" maskUnits="userSpaceOnUse" x="0" y="0" width="101" height="137">
<path d="M28.8197 4.12712L28.4234 4.91085C28.2648 5.70026 27.7986 6.34012 27.7986 7.15413C27.7986 7.79777 27.6061 8.55126 27.7269 9.20059L27.7722 8.46798C27.7986 8.20484 27.8477 7.03679 28.2139 7.03679C28.463 7.03679 28.6008 7.26774 28.8009 7.38322C29.0783 7.54604 29.2595 7.39648 29.5087 7.28478C29.6125 7.23746 30.8753 7.03868 31.0904 6.97811L30.8242 6.98001C30.0881 7.03491 28.6839 7.18067 28.5197 6.48781C28.3366 5.7022 28.3007 4.94687 29.1312 4.59666C29.303 4.52472 29.0029 4.19153 28.8783 4.19153C28.8783 4.10255 29.1784 4.01546 29.0859 3.94921C29.0708 3.93787 29.0539 3.93408 29.0388 3.93408H29.0386C28.9481 3.93413 28.8462 4.07416 28.8198 4.12715L28.8197 4.12712Z" fill="black"/>
<path d="M19.4823 27.1133C19.3709 27.2098 19.4105 27.3896 19.2671 27.4654L19.2086 27.5316C19.3388 27.5316 19.5728 27.5108 19.6521 27.401C19.7144 27.3139 19.839 27.2533 19.9635 27.2174C20.073 27.1871 20.175 27.1852 20.2901 27.1776C20.3561 27.1757 20.7053 27.1341 20.7129 27.0811C20.4958 27.0811 20.2958 27.0489 20.0806 27.0735C19.9201 27.0924 19.6012 27.011 19.4823 27.1133V27.1133Z" fill="black"/>
<path d="M26.1771 27.4278C26.1601 27.4411 26.145 27.4468 26.1318 27.4657C26.0959 27.5206 26.0827 27.6077 26.1053 27.6701C26.1167 27.6967 26.1204 27.7156 26.1525 27.7288C26.2016 27.7496 26.2978 27.7099 26.3413 27.6891C26.362 27.6777 26.379 27.6588 26.3998 27.6436C26.4356 27.6134 26.4791 27.5774 26.5092 27.5376L26.5357 27.4203C26.5017 27.4051 26.4828 27.3938 26.4507 27.3824C26.4413 27.3767 26.4168 27.3786 26.4054 27.3748C26.3375 27.3559 26.2393 27.3824 26.1771 27.4278V27.4278Z" fill="black"/>
<path d="M29.5744 13.6932C29.5838 13.7424 29.5857 13.7765 29.6197 13.8182C29.6631 13.8693 29.6801 13.8447 29.7424 13.8371L29.7556 13.6156C29.7556 13.4755 29.7556 13.3468 29.6914 13.2237C29.682 13.2048 29.6065 12.9947 29.5612 13.0401C29.4781 13.1215 29.5291 13.3714 29.5291 13.4907C29.5291 13.5721 29.5593 13.6232 29.5744 13.6932V13.6932Z" fill="black"/>
<path d="M28.3893 10.6473C28.3704 10.5792 28.3591 10.5111 28.3383 10.4448C28.3213 10.3899 28.2741 10.3142 28.2666 10.2744C28.21 10.2744 27.9306 10.5811 27.9023 10.6398C27.8117 10.8215 27.9702 10.9124 28.0325 11.0525C28.1118 11.2323 28.1099 11.6223 28.3251 11.6923C28.4289 11.7264 28.478 11.6507 28.5912 11.6204C28.6573 11.6034 28.6988 11.6034 28.7083 11.522C28.7196 11.4481 28.6856 11.2796 28.6441 11.2153L28.578 11.026C28.478 10.9029 28.4346 10.7912 28.3893 10.6473V10.6473Z" fill="black"/>
<path d="M31.0846 13.7989C31.1507 13.85 31.2469 13.8614 31.3319 13.8765C31.4055 13.8898 31.6584 13.8728 31.6962 13.9031L31.8189 13.7989C31.8679 13.4563 32.1341 13.3162 32.119 12.9546C32.1171 12.9111 32.1095 12.6744 32.0265 12.7066C31.9491 12.7369 31.934 12.8259 31.8642 12.8694C31.7943 12.913 31.7169 12.9603 31.649 13.0133C31.5773 13.0701 31.2413 13.1477 31.1431 13.1572C30.994 13.1723 30.8374 13.1591 30.8695 13.3465C30.8827 13.4279 31.0223 13.7516 31.0846 13.7989V13.7989Z" fill="black"/>
<path d="M21.877 26.6737C21.7845 26.6926 21.7751 26.7021 21.7015 26.7532C21.6241 26.8062 21.4297 26.8516 21.3881 26.9425C21.341 27.0485 21.6977 26.9425 21.7524 26.916L21.9034 26.9557C22.0054 26.8914 22.1922 26.8649 22.313 26.8573C22.3715 26.8535 22.5018 26.827 22.5471 26.7929C22.5735 26.7721 22.6075 26.7267 22.6377 26.7134V26.6869C22.5244 26.6869 22.3772 26.685 22.2677 26.6737C22.1299 26.6604 22.0054 26.6491 21.877 26.6737V26.6737Z" fill="black"/>
<path d="M11.5642 30.1803C11.6964 30.097 11.619 29.9948 11.6756 29.9001C11.7171 29.8282 11.7681 29.7941 11.8379 29.7486C11.9304 29.6881 12.2098 29.6085 12.2418 29.4874C12.2532 29.442 12.1229 29.4609 12.0909 29.4609C11.9059 29.4609 11.7775 29.4268 11.5964 29.4477C11.4038 29.4704 11.166 29.8206 11.0056 29.9455L11.0244 30.1027C11.0754 30.1216 11.1188 30.167 11.1736 30.1878C11.2226 30.2049 11.283 30.1935 11.3302 30.2068C11.4132 30.2314 11.4906 30.2276 11.5642 30.1803V30.1803Z" fill="black"/>
<path d="M92.4302 46.4692C92.1848 46.4048 91.5336 46.03 91.5129 45.7498C91.4959 45.5056 91.1108 45.322 90.9938 45.1099C90.7277 44.6272 90.4049 44.3697 89.9387 44.135C89.5329 43.9305 89.2819 43.5122 88.9233 43.2717C88.7043 43.1241 88.4325 43.2358 88.2211 43.0824C87.9267 42.8666 88.3098 42.4672 88.4099 42.2381C88.6005 41.8027 88.2362 41.1382 88.4042 40.8315C88.5175 40.6252 88.8515 40.4775 89.0478 40.3488C89.1838 40.2579 89.4329 40.2523 89.5159 40.0989C89.5612 40.0175 89.6499 39.8812 89.7311 39.832C89.8802 39.7392 90.2294 39.4288 90.3427 39.3019C90.6107 38.9991 90.7598 38.0222 90.7598 37.6076C90.7598 37.3577 90.354 36.8523 90.7843 36.6592C91.0844 36.5266 90.9825 36.4566 91.0844 36.1897C91.175 35.9512 91.3657 35.8622 91.4695 35.5744L91.3053 35.3984C90.9315 35.3511 91.1071 34.9024 91.058 34.6449C90.9976 34.3288 90.975 34.0013 90.9089 33.6851C90.8523 33.4144 90.705 33.1437 90.6748 32.8673C90.6748 32.7007 90.7183 32.4281 90.6296 32.2918C90.5257 32.1365 90.4408 32.0343 90.4408 31.8337C90.4408 31.4229 90.1577 31.4323 90.101 31.0613C90.0897 30.9799 89.9538 30.5729 89.9652 30.5388C90.0067 30.4176 90.103 30.3665 90.0954 30.2189L90.0765 29.8062C90.0558 29.3935 89.6575 29.225 89.6858 28.9032L89.6179 28.0456C89.5971 28.0437 89.5782 28.0418 89.5594 28.0418C89.5405 28.0418 89.5254 28.0437 89.5103 28.0475C88.861 28.1933 89.5726 27.4947 89.699 27.3414C89.8179 27.1956 89.4914 26.9722 89.4065 26.9949C89.2876 27.0252 89.0195 27.2486 88.8912 27.3205C88.7119 27.4228 88.0022 27.4152 87.8248 27.3016C87.6379 27.1842 86.7263 26.7261 86.5432 26.798C86.4903 26.675 86.0147 26.3929 85.8731 26.3021C85.6108 26.1317 85.556 25.9935 85.4107 25.7512C85.3201 25.6016 85.1049 25.6262 84.969 25.5695C84.8237 25.507 84.886 25.134 84.8973 24.9996C84.8992 24.9618 85.4277 24.9031 85.3201 24.6078C85.2578 24.4431 85.4088 24.4241 85.5145 24.339C85.5862 24.2822 85.8486 24.1572 85.8014 24.0379C85.7486 23.9054 85.6636 23.7048 85.4957 23.6404C85.2786 23.5552 85.2333 23.3602 85.1502 23.1425C85.0143 22.8207 84.4443 22.8642 84.4217 22.5935C83.963 22.3967 84.5953 21.8136 84.6821 21.5069C84.8445 20.9371 84.4179 20.727 84.1027 20.3824C83.9139 20.178 83.8309 19.7066 83.6402 19.8277C83.0363 20.2083 82.6135 20.2802 81.9359 20.5074C81.4244 20.6796 81.7471 20.9352 81.6301 21.2854C81.2016 21.2854 81.0072 20.9598 80.96 20.5793C80.9204 20.2594 80.0975 20.1022 80.5561 19.841C80.5542 19.824 80.5523 19.8221 80.5505 19.8069C80.4504 19.788 80.4221 19.6612 80.3089 19.7028C80.2503 19.7236 79.937 19.8523 79.9125 19.8069C79.7539 19.8069 79.8653 19.4359 79.8408 19.3488C79.8011 19.2106 79.6067 18.9172 79.5086 18.8074C79.5086 18.3379 78.8215 18.5727 78.578 18.3814L77.7664 17.7473C77.5474 17.5769 77.1681 18.0918 76.8944 18.1524C76.6735 18.2016 76.4357 17.6034 76.7773 17.6034C77.0114 17.6034 77.0284 17.6053 77.0435 17.4008C77.0548 17.2323 77.1718 17.115 77.1605 16.9295C77.1454 16.6928 77.1397 16.5717 77.2586 16.3483C77.4851 15.9148 77.2171 16.0776 76.8811 15.8902C76.5716 15.7179 76.7056 15.3885 76.7056 15.1178C76.5678 15.1178 76.2734 15.1443 76.145 15.184C75.341 15.184 75.5373 16.2555 74.9295 16.4599C74.1556 16.7174 74.6709 15.7784 73.848 16.0794C73.7253 16.1249 73.4157 15.6043 73.3931 15.4907C73.2893 15.4907 73.2289 15.5456 73.1458 15.5569C72.9816 16.1362 71.9945 16.1173 71.7982 16.4789C71.6679 16.7231 71.5282 16.6417 71.3301 16.7609C71.079 16.9124 71.2074 17.3005 70.8884 17.4462C70.6034 17.5787 70.3429 17.9649 70.66 18.1732C71.23 18.548 70.358 18.3871 70.1598 18.2186C69.922 18.016 69.8371 17.4084 70.0692 17.1396C70.5958 16.5281 70.2599 15.8182 71.364 16.0794C71.4735 16.1059 71.7661 15.9015 71.9284 15.8636C72.2851 15.7841 71.9416 15.5778 72.1964 15.4661C72.3304 15.4055 72.6098 15.2124 72.7551 15.2427C72.8023 15.2522 72.993 15.4244 73.0156 15.4055C73.7649 14.8262 73.5007 15.3468 74.3822 15.3468C74.6766 15.3468 74.8823 15.114 75.1636 15.2295C75.4844 15.362 75.8261 14.8773 75.5543 14.8773H74.369C73.7291 14.8773 71.5585 15.0061 71.4226 14.1769H71.4094C71.2131 14.7657 71.0848 15.3336 70.6016 15.8182C70.0768 16.3445 70.0278 17.1377 69.4313 17.6299C69.2898 17.9706 68.4574 18.2035 68.1498 18.4931C67.8119 18.8111 67.5835 19.3582 67.342 19.7217L67.3495 19.735C67.9252 19.735 67.3325 20.0814 67.2646 20.2726C67.2381 20.3464 67.1909 20.691 67.1739 20.691C67.0984 20.39 67.0777 19.6876 66.8795 19.6365C66.2736 19.4851 65.6432 19.9016 65.0581 20.0303C64.9901 20.0454 65.092 20.2707 64.9995 20.2594L63.7632 20.089C62.827 19.9602 62.8855 20.1704 62.1626 20.7288C62.0229 20.9484 62.0475 21.0904 62.1173 21.3176C62.1796 21.522 61.9191 21.6432 61.8191 21.77C61.7681 21.8306 61.7511 22.0862 61.6888 22.1941C61.5832 22.3739 61.3887 22.4118 61.2189 22.514C61.0396 22.6257 60.9074 23.1331 60.8621 23.3261C60.7866 23.6442 60.8206 24.4431 60.3997 24.4431C60.1789 24.3333 60.0524 24.2538 59.9712 24.0058C59.9014 23.7995 59.6825 24.0001 59.5598 23.9017C59.4824 23.8373 59.4692 23.6575 59.371 23.6329C59.3691 23.6158 59.3748 23.6177 59.3578 23.6139C59.3559 23.5969 59.3521 23.5912 59.3521 23.5742C59.3427 23.5685 59.3465 23.5685 59.3465 23.5552L59.3389 23.542C59.1653 23.542 59.035 24.2708 58.6236 23.8884C58.4027 23.6821 58.4311 23.046 58.3707 23.0176C58.231 22.957 57.8818 22.8472 57.8629 22.6522C56.9569 22.2604 55.8339 22.7602 55.0638 23.3054C54.9373 23.3962 54.4296 23.5817 54.4145 23.5344C54.2559 23.5344 54.0691 23.1217 53.9388 23.1028C53.8426 22.834 53.4613 22.5879 53.3462 22.2661C53.2027 21.8666 53.5028 21.6641 53.6859 21.3252C53.7199 21.2589 53.801 20.8538 53.8482 20.8538C53.9275 21.0961 54.2616 21.2192 54.473 21.2192C54.8845 21.2192 54.909 20.7099 55.1695 20.4809L56.7814 19.2712C56.9399 19.1538 56.6285 17.5239 56.6191 17.257C56.5964 16.6152 56.3303 16.6266 56.8022 16.3294C57.4401 15.9243 56.923 15.576 56.6134 15.8637C55.9056 16.5206 55.3469 15.8277 54.6353 16.2953C54.2956 16.5187 53.8633 17.1889 53.4971 17.2305C52.7742 17.3138 52.5798 17.0146 52.1099 16.5774C51.5738 16.0776 51.1605 16.2309 50.5678 15.8769L48.9541 14.9739C48.6011 14.777 47.7009 15.6176 47.5894 15.9621C47.5536 16.0719 47.1402 17.2588 47.1402 16.8064C47.1402 16.5508 46.9439 16.4751 46.9439 16.3293C46.9439 16.087 47.8518 15.5267 47.2308 15.2029C46.8684 15.0155 47.5857 14.8906 47.446 14.582C47.0289 13.6639 45.4075 14.1977 44.7583 14.5233C44.1127 14.8489 43.9108 14.5157 43.3276 14.2223C43.371 14.0008 44.2053 14.4003 44.3996 14.281C44.762 14.0633 45.3037 13.6525 45.5321 13.3136C45.7737 13.0883 45.7926 12.7362 45.7926 12.4238C45.7926 12.1758 45.6416 12.0282 45.6491 11.8218C45.6623 11.4659 46.0757 10.7579 45.383 10.6708H45.2339C44.9564 10.7825 44.8564 11.0646 44.745 11.3391C44.5865 11.7272 44.3147 11.9297 43.9768 12.1682C43.454 12.5412 42.5952 13.1905 42.5065 13.8228C42.4819 14.0026 42.1025 13.8341 42.0384 13.7641C41.8024 13.5085 41.6118 13.6088 41.2909 13.7508C41.2173 13.7849 41.0172 13.9647 41.004 13.9477C40.9568 13.8852 41.021 13.5975 40.9134 13.5824V13.535C41.2909 13.535 41.4363 13.3533 41.7986 13.3533C42.1856 13.3533 42.5083 13.3116 42.7745 13.0447C42.8576 12.9614 43.152 12.4503 43.1766 12.4503C43.3634 12.4654 43.3955 12.4806 43.5616 12.3254C43.6881 12.208 43.8428 12.1493 43.9636 12.0054C44.1977 11.7328 44.8168 11.305 44.8489 10.8942C44.881 10.4891 45.1565 10.6386 45.3887 10.5023C45.4548 10.3452 45.6945 10.313 45.6171 10.1161C45.5208 9.87005 45.3038 9.65803 45.1811 9.42329C45.1169 9.30024 45.183 9.05224 45.1093 8.96516L44.6941 8.46729C44.326 8.28366 44.5053 8.95001 44.5053 9.08821C44.3204 9.08821 44.0542 9.23775 43.8863 9.12228C43.6937 8.98787 43.5711 8.75313 43.3917 8.61871C42.9897 8.31583 42.4536 8.25903 42.012 7.98454C41.861 7.88989 41.7138 7.95426 41.5628 7.89935C41.0607 7.71382 41.2967 7.56428 41.2967 7.19891C41.1475 7.19891 40.6662 7.56617 40.5737 7.68922C40.351 7.99022 40 8.17007 39.7621 8.44078C39.4904 8.74746 39.4979 8.44077 39.6319 8.24579C39.4507 8.08488 39.4583 7.72898 39.3129 7.72898C39.2903 7.72898 39.2638 7.73655 39.2336 7.75547C38.9468 7.92585 38.9373 8.30068 38.7203 8.40291C38.5126 8.49947 38.3465 8.25337 38.1861 8.35748C37.986 8.48621 37.9691 8.33855 37.9067 8.14736C37.5802 7.15729 36.3609 7.10045 35.4795 7.06265C35.0982 7.04561 35.0831 6.75975 34.8038 6.68971C34.649 6.64049 34.4697 6.67267 34.3149 6.62346C34.1828 6.58181 34.0903 6.54964 33.9582 6.62346C33.709 6.75975 33.5882 6.93581 33.4429 6.5837C33.3712 6.40765 33.1522 6.44739 32.9955 6.44739C32.6426 6.44739 32.6577 6.38682 32.5067 6.72757C32.4255 6.91309 31.931 6.45118 31.7913 6.4209L31.3025 6.44739C31.3025 6.79193 31.4289 6.72379 31.276 6.97556C31.2572 7.00775 31.2345 7.04372 31.2062 7.08725C31.0986 7.24816 31.1892 7.36932 31.2062 7.53213C31.2402 7.87099 31.712 8.13982 31.8102 8.48814C31.8932 8.73802 32.5123 9.58988 32.0895 9.72996C32.1009 9.76972 32.3613 9.90791 32.4161 9.94009C32.4935 9.98364 32.6161 10.1692 32.6501 10.1805C32.6501 10.7352 32.6331 10.5534 33.0786 10.5534C33.1069 10.7276 33.8392 11.9032 33.4825 11.9922C33.49 12.0414 33.6996 11.996 33.743 11.9922C33.8034 11.9884 33.9147 11.907 33.9449 11.9278C33.9808 11.9524 34.1639 12.6018 34.1714 12.6794C34.2828 12.7078 35.1718 13.2416 34.8906 13.3382L34.8906 13.3381C34.8641 13.3476 34.8245 13.3532 34.7717 13.3532C34.2318 13.3532 34.0431 13.2491 33.5353 13.5691C33.2012 13.7792 33.3107 14.048 33.2484 14.366C33.5448 14.366 34.0902 14.5989 34.3092 14.3793C34.547 14.1408 34.6018 13.6713 34.8094 13.4442C34.8453 13.4044 34.8773 13.3836 34.9038 13.3741L34.9038 13.3742C35.0453 13.3325 35.0793 13.6392 35.1416 13.732C35.4153 14.1447 35.572 14.2601 35.0963 14.3396C34.8566 14.3813 34.7207 14.5592 34.5754 14.758C34.1922 15.2824 33.8053 15.7821 33.1503 15.2881C32.9653 15.148 31.1345 15.8541 31.1345 16.1513L31.7461 16.0926C32.0858 16.0604 31.7782 16.5053 31.5498 16.5053C30.6702 16.5053 30.9741 17.2361 31.395 17.7074C31.5215 17.8513 31.6838 17.8854 31.8499 17.9706C32.0367 18.0633 31.9367 17.7907 31.9593 17.6753C31.999 17.4859 32.4406 17.573 32.6105 17.4727C32.8823 17.5314 32.8597 17.6847 33.1824 17.6166C33.2881 17.5939 33.5165 17.4235 33.5807 17.3478C33.8506 17.0278 33.8317 17.8078 34.23 17.4916C34.3376 17.4083 34.6471 17.0998 34.7585 17.0998C34.4093 17.45 34.6886 17.9516 33.9959 18.1656C33.9337 18.1845 33.5486 18.1808 33.5354 18.211C33.475 18.336 33.5637 18.6427 33.5146 18.8206C33.424 19.1519 33.1485 19.1973 33.2674 19.6043C33.358 19.9148 33.5109 20.2877 33.7374 20.4884C33.8657 20.6039 34.4282 20.2196 34.6792 20.2007C35.0076 20.1742 34.817 20.2707 34.9529 20.5206L35.1869 20.9522C35.1869 21.2191 35.4059 21.9991 35.2454 22.1808C34.9793 22.4837 34.4565 22.2925 34.1601 22.0578C34.0204 21.9461 33.6675 22.09 33.4636 22.09C33.4259 22.2376 33.6618 22.6882 33.7619 22.7904C34.0129 23.0403 33.9638 23.2694 34.1073 23.5741C34.2941 23.9698 34.9189 24.992 35.3568 24.4828C35.5115 24.3011 36.4251 24.7535 36.7233 24.6475C36.9781 24.5434 37.6048 24.674 37.8558 24.7516C38.1823 24.852 38.4938 25.0981 38.7203 25.3271C39.2487 25.8591 39.2072 26.7355 39.7282 27.2372L40.0207 27.5174C40.1472 27.5174 40.234 27.5307 40.3529 27.5496C40.6285 27.7238 40.7852 28.5472 40.9324 28.8653C41.1023 29.2307 41.2193 29.5506 41.5383 29.8137C42.1498 30.3192 42.8387 30.5123 43.6333 30.5123C43.841 30.5123 44.0486 30.6372 44.277 30.6372C44.4752 30.6372 44.4846 30.819 44.4525 31.0424C44.1562 30.8947 44.2241 30.6656 43.841 30.8209C43.5428 30.9401 43.2068 30.7338 42.884 30.6694C42.2743 30.5483 41.2513 30.0466 40.8285 29.5904C40.5699 29.3121 40.266 28.7309 40.3283 28.3277C40.2792 27.7919 39.6186 27.7314 39.3638 27.3413C39.126 26.976 38.7825 26.4402 38.6163 26.0465C38.5333 25.8496 38.2955 25.418 38.1218 25.2874C37.8614 25.0924 37.2574 25.0867 36.9252 25.1435C36.3495 25.1738 35.5719 25.1208 35.5719 25.7853C35.3303 25.7853 35.2227 25.5051 34.9131 25.6149C34.6017 25.7247 34.1921 25.7512 33.8599 25.7266C32.952 25.6546 32.5443 25.6149 31.9271 24.8823C31.0098 23.7918 30.3586 26.8624 30.1698 27.3811C29.8414 27.8752 29.7168 28.8596 30.1642 29.225C30.2567 29.3007 30.0887 29.6907 30.1698 29.7418C30.4265 29.8989 30.4492 30.0826 30.6002 30.3306C30.7267 30.5369 30.7285 31.1408 30.3926 31.1408C30.3926 31.1143 30.4001 31.0935 30.4058 31.0689C30.4284 31.0689 30.5341 30.9439 30.5549 30.9439C30.5549 30.607 29.8962 30.465 29.6376 30.5066C29.0147 30.5066 28.3183 29.2951 27.8408 29.4067C27.4557 29.4995 26.965 30.8909 27.216 31.0612C27.3009 31.118 27.9446 31.1275 28.0748 31.1275C28.1597 31.72 28.0956 32.7253 27.5293 33.1096C26.8461 33.5715 26.6347 32.0249 25.9872 32.3372C25.7683 32.4432 25.8457 32.4034 25.6946 32.2255C25.5625 32.0703 25.4021 31.8961 25.3304 31.6954C25.2266 31.4134 25.3832 31.4493 25.6418 31.3963C25.9532 31.332 26.2269 31.2941 26.3515 30.9704C26.6309 30.128 26.0419 29.9273 25.7664 29.225C25.6361 28.8956 25.7985 28.9069 25.453 28.9561C25.1378 29.0016 25.2115 28.7668 25.1152 28.5321C25.0057 28.2614 25.2058 27.7919 24.8944 27.7919C24.4527 27.7919 23.7732 27.6386 23.3391 27.773C22.5709 28.0096 21.5932 27.9149 20.8608 28.1913C20.219 28.2993 19.5943 28.6552 18.8884 28.4791C18.1504 28.2936 17.9918 28.1989 17.235 28.4848C16.848 28.6324 15.0266 30.1999 15.589 30.3305C15.7835 30.374 15.7136 30.7413 15.8948 30.7413C15.8986 30.7602 15.8986 30.7602 15.9156 30.7602C15.9156 31.2108 15.3116 31.1199 15.1342 31.2581C14.7661 31.544 14.6321 32.3447 14.6717 32.835C14.6717 33.1833 14.6415 33.5222 14.5283 33.8421C14.4434 34.0845 14.6453 34.2227 14.868 34.2662C15.389 34.3665 16.0477 34.3703 16.5988 34.3703C17.0688 34.3703 16.9858 34.3968 17.3142 34.6202C16.7574 34.6202 17.1406 35.6519 16.5856 35.8488L16.7027 36.2482L16.6819 36.3259C16.6951 36.3296 16.8971 37.0585 16.5064 37.0585C16.4535 37.2762 16.3384 37.5374 16.3384 37.7589C16.3384 38.0107 16.5139 38.1584 16.5139 38.3666C16.5139 39.1844 16.8386 39.97 16.5139 40.7462C16.1912 41.5167 15.6589 42.1717 15.3757 42.9251C15.0322 43.83 15.0813 45.0624 15.0813 46.0639C15.0568 46.3478 14.6962 46.7378 14.5547 46.3119C14.5415 46.3119 14.5396 46.31 14.5283 46.3194C14.4773 46.2929 14.062 46.3989 13.9167 46.3649C13.6751 46.3062 13.5354 46.1074 13.2806 46.1491C12.9673 46.2002 12.6389 46.1642 12.3236 46.1093C12.2123 46.0904 11.4497 46.0393 11.4327 46.1093C11.378 46.1226 11.4686 46.3176 11.4837 46.3516C11.5631 46.53 11.574 46.7336 11.5553 46.9245L93.0642 46.9245C92.9087 46.7228 92.6382 46.5231 92.4305 46.4689L92.4302 46.4692Z" fill="black"/>
<path d="M17.2119 27.6088C16.942 27.6088 16.6816 27.6012 16.4192 27.6164C16.2852 27.6239 16.1852 27.7129 16.0549 27.7413L16.0341 27.7924C16.0927 27.7962 16.1229 27.8322 16.1833 27.8322C16.2248 27.8322 16.2437 27.8189 16.2814 27.8189C16.3494 27.8189 16.3852 27.7924 16.4513 27.7924C16.5664 27.7924 16.6985 27.73 16.808 27.7072C17.0402 27.6637 17.3478 27.836 17.5573 27.6751C17.7517 27.5274 17.2837 27.6088 17.2119 27.6088Z" fill="black"/>
<path d="M14.5765 28.2694C14.35 28.2883 14.1216 28.3129 13.9065 28.3754C13.7762 28.4133 13.5554 28.4663 13.4176 28.4133L13.3666 28.5325C13.478 28.506 13.6479 28.5325 13.7762 28.5117C13.897 28.4928 13.9989 28.4814 14.1141 28.453C14.3783 28.3906 14.6294 28.3887 14.9219 28.3887C14.9936 28.3887 15.0673 28.3489 15.1371 28.3489C15.1314 28.3186 14.9446 28.3092 14.9012 28.3035C14.7974 28.2883 14.6822 28.2618 14.5765 28.2694Z" fill="black"/>
<path d="M58.4359 15.4461C58.6624 15.4461 58.8304 15.5634 59.0474 15.5634C59.1267 15.3287 58.3132 13.9581 58.098 13.8237C57.8225 13.6533 57.7432 13.4943 57.377 13.4716C57.1732 13.4583 56.4578 13.2236 56.4125 13.3201C56.3162 13.5321 56.2237 13.6362 56.0878 13.818C55.9312 14.0281 56.2954 14.3594 56.1463 14.4124C56.035 14.4522 55.9312 14.4616 55.8273 14.4919C55.8273 14.6509 55.967 14.7797 55.9972 14.9292C56.2709 14.9292 56.2935 14.7002 56.6088 14.7002C56.9164 14.7002 56.9334 15.1886 56.9334 15.4403L56.9523 15.6032C57.1693 15.6032 57.426 15.6013 57.6356 15.571C57.8149 15.5445 57.6072 15.4063 57.6488 15.3343C57.7148 15.2245 58.2509 15.446 58.4359 15.446L58.4359 15.4461Z" fill="black"/>
<path d="M80.6443 11.1024C80.952 11.074 80.9633 10.9264 80.9633 10.6064C80.4442 10.6064 79.9837 10.8166 79.491 10.8999C79.2966 10.9339 79.1286 11.0324 78.9644 11.1611C78.8776 11.2312 78.7247 11.2823 78.821 11.4299C78.8511 11.4754 79.5854 11.0381 79.408 11.6193C79.3344 11.8559 78.9002 12.738 79.4004 12.6794C79.6439 12.651 80.0799 11.8616 80.2536 11.8616C80.2536 12.0338 80.5574 12.1096 80.4687 12.2932C80.3781 12.4768 80.4499 12.545 80.6499 12.5544C80.9312 12.5677 80.9991 12.8819 81.2162 12.8819C81.4521 12.8819 81.4955 12.6112 81.6786 12.5753C81.6579 12.5166 81.286 12.5866 81.2105 12.5412C81.0407 12.4446 80.7594 12.4579 80.6499 12.2667L80.3838 11.8029L80.448 11.6136C80.3611 11.4091 80.4178 11.1251 80.6443 11.1024L80.6443 11.1024Z" fill="black"/>
<path d="M85.4702 22.6985C85.6023 22.4997 85.574 22.5698 85.7647 22.4959C85.9496 22.424 86.0194 22.0813 85.9326 21.9337C85.7552 21.6327 86.0723 21.627 86.2912 21.627C86.3252 21.627 86.5064 21.7046 86.5177 21.6649C86.397 21.6648 85.8873 21.2522 85.776 21.1556C85.5268 20.9379 85.1682 20.6047 85.0229 20.2981C84.9719 20.1939 84.7567 19.679 84.6831 19.7358C84.5774 19.8191 84.4245 19.8115 84.332 19.8664C84.249 19.9156 84.3792 20.1712 84.3906 20.2129C84.4811 20.5271 84.7378 20.7259 84.8133 21.0515C84.9568 21.663 84.4623 21.8409 84.4623 22.3653C84.4623 22.6227 84.7473 22.3388 84.8398 22.2668C85.0568 22.0983 85.1304 21.875 85.4513 21.875L85.5363 21.7898C85.959 21.4168 85.491 22.3728 85.406 22.5092C85.3173 22.6493 85.34 22.8972 85.4702 22.6985V22.6985Z" fill="black"/>
<path d="M83.5586 17.2974C83.4774 17.3712 83.2584 17.3656 83.2584 17.4924C83.2584 17.7101 83.6831 17.4507 83.7605 17.5776C84.0323 18.0225 83.7832 17.2842 84.0795 17.0494C84.4683 16.7371 83.6397 15.7016 83.317 15.6296C82.981 15.5539 82.9319 15.817 82.7583 15.4195L82.4129 14.6282L82.3865 14.4067C82.4714 14.0073 82.9395 13.6817 83.2792 13.5037C83.6794 13.2955 83.5699 12.7673 83.2849 12.4645C83.1358 12.3054 82.7149 12.4039 82.4978 12.3338C82.2071 12.2411 81.8806 12.7333 81.6447 12.8639C81.5975 12.8904 81.8164 13.6079 81.7296 13.8502C81.6428 14.0963 82.0222 14.2232 82.1788 14.367C82.2864 14.4655 82.1411 14.6075 82.1203 14.7135C82.0939 14.8573 82.2241 14.9482 82.1524 15.1394C82.0769 15.3458 81.5654 15.2776 81.5163 15.0997C81.4842 14.9861 81.5975 14.7059 81.5673 14.668C81.4805 14.5601 81.405 14.5393 81.4578 14.367C81.4918 14.2534 81.707 14.0887 81.4691 14.1001C81.3559 14.1039 81.12 14.3632 81.0539 14.3216C80.8803 14.2156 81.2653 14.0263 80.9048 13.9165C80.6651 13.8426 80.8878 13.5662 80.7274 13.3599C80.5972 13.2179 80.5122 13.4299 80.2989 13.4394C79.9384 13.4546 80.0573 13.4754 80.163 13.1895C80.2215 13.0305 80.2555 13.0475 80.097 13.0078C80.0668 13.0002 80.1045 12.4834 79.9856 12.6481C79.9403 12.7125 79.9044 12.8128 79.8233 12.8242C79.7855 12.8299 79.5873 12.8526 79.5836 12.8829C79.7987 12.9264 79.6742 13.4697 79.5628 13.5625C79.5005 13.6174 79.4307 13.2179 79.3873 13.1517C79.2759 12.9756 79.1136 12.8772 78.8871 12.9491C78.6323 13.0267 78.4662 13.0078 78.1963 13.0078C78.1963 13.1006 78.1887 13.5757 78.2434 13.6022C78.3359 13.6496 78.7493 13.5378 78.7757 13.6685C78.8625 14.0925 79.0135 13.996 79.2381 14.2818C79.3363 14.4068 78.804 14.509 78.7436 14.5241C78.6341 14.5525 78.5832 14.6699 78.4775 14.7135C78.2302 14.8157 78.1283 14.7456 78.2623 15.0996C78.317 15.2435 78.704 15.041 78.8418 15.2624C78.9795 15.607 79.1343 15.2606 78.9588 15.6354C78.8946 15.7736 79.1419 15.8285 79.0569 16.0613C78.9361 16.3869 77.8584 15.7887 77.8584 16.4078C77.8584 16.6444 77.7225 16.9 77.7225 17.1536C77.7225 17.1896 78.0566 17.1215 78.1585 17.1271C78.3076 17.1347 78.1509 17.3164 78.1509 17.3562C78.1264 17.3562 78.0924 17.3959 78.0603 17.3959C77.9905 17.7481 78.2547 17.4944 78.4321 17.4792C78.485 17.4792 78.989 17.9639 79.1154 18.0301C79.5212 18.244 79.3665 18.0983 79.7647 17.9904C80.3555 17.8294 79.4174 18.5204 80.1045 18.5204C80.2894 18.5204 80.4574 18.7684 80.565 18.7684C80.6858 18.7684 80.7802 18.3576 80.7802 18.2516C80.6745 18.2516 80.0327 18.492 80.1818 18.1342C80.3555 17.7178 80.2347 17.7802 80.6103 17.7802C80.7481 17.7802 81.4295 16.7144 81.7107 16.6633C81.907 16.6273 82.041 16.7182 82.2826 16.6368C82.5053 16.5629 82.5827 16.3812 82.7582 16.6368C82.8715 16.7996 83.0187 16.845 83.1036 16.5573C83.2075 16.2014 83.2169 16.3888 83.3887 16.4664C83.6095 16.5648 83.5302 16.4494 83.4547 16.6955C83.3773 16.9472 84.0115 16.8791 83.5585 17.2975L83.5586 17.2974Z" fill="black"/>
<path d="M85.0152 25.2108C85.3474 25.2941 85.7532 25.7371 86.0118 25.2563C86.0514 25.1806 86.2949 24.9193 86.31 25.1313C86.3345 25.4721 86.5516 25.4664 86.8706 25.296C87.1613 25.1389 87.1235 24.9685 87.4953 24.9818L88.6071 25.0196C88.8449 25.0291 88.709 25.5099 89.0752 25.544C89.1318 25.5573 89.1771 25.5667 89.2167 25.5762C89.2035 25.4626 89.0676 25.1711 89.062 25.0537C89.0582 24.9685 89.0393 24.8701 89.0242 24.7849C88.9751 24.5293 88.8694 24.5255 88.6524 24.4063C88.5089 24.3268 88.8336 24.2245 88.8713 24.2056L89.1412 24.0012C89.0639 23.9841 88.9676 23.9936 88.8827 23.986C88.7977 23.9803 88.726 23.9576 88.6977 23.8762C88.6429 23.7134 88.6429 23.5923 88.541 23.4446C88.4051 23.2439 88.0918 23.0508 87.9181 22.8293L87.2405 22.0513C87.1764 21.9774 86.7989 21.6064 86.6875 21.6859C86.6724 21.6954 86.8178 22.1649 86.8178 22.2406C86.8178 22.5908 87.0103 22.2387 87.1424 22.3523C87.4406 22.6078 87.1953 23.3764 87.1953 23.6926C87.0292 23.6926 86.6837 23.3367 86.5837 23.6149C86.5648 23.6642 86.5762 23.738 86.5441 23.791C86.4138 24.0144 86.3233 23.5884 86.3233 23.4635C86.5007 23.3934 86.4554 23.0981 86.3553 22.9732C86.293 22.8956 86.093 22.9542 85.9854 22.9542C85.6173 22.9542 85.891 23.56 86.0439 23.7323C86.3988 24.1317 86.0684 24.5482 85.8231 24.8057C85.6721 24.961 85.0152 24.9931 85.0152 25.2108L85.0152 25.2108Z" fill="black"/>
<path d="M30.8885 9.65907C30.8243 9.40728 30.6695 9.3202 30.4336 9.28613L30.2184 9.31264C30.0146 9.40728 29.788 9.35239 29.5748 9.35239C29.4709 9.35239 29.0916 9.30127 29.1255 9.47544C29.1652 9.68747 28.9972 9.75561 28.95 9.94114C28.8915 10.1664 29.0784 10.1797 29.2369 10.227C29.4955 10.3084 29.5559 10.5999 29.8598 10.5147C30.0768 10.4561 30.292 10.5356 30.5053 10.5356C30.7224 10.5356 30.7828 10.4163 30.8167 10.2081C30.8507 10.0036 30.9451 9.87677 30.8885 9.65907Z" fill="black"/>
<path d="M30.6015 12.4835L30.5317 12.3794C30.4769 12.3926 30.4599 12.4059 30.4014 12.4059H30.3429C30.307 12.404 30.2825 12.3889 30.2504 12.3851C30.224 12.3832 30.1485 12.3737 30.1466 12.4059C30.1409 12.4911 30.2014 12.5403 30.2636 12.582C30.2844 12.5952 30.3052 12.6047 30.3297 12.6085C30.3486 12.6122 30.3731 12.6217 30.4014 12.6274C30.4373 12.635 30.4788 12.6766 30.5109 12.6936C30.5581 12.7183 30.6543 12.7997 30.6807 12.7126C30.694 12.6653 30.6902 12.6141 30.6675 12.5687C30.6581 12.5498 30.6222 12.4835 30.6015 12.4835V12.4835Z" fill="black"/>
<path d="M29.4236 14.5113C29.3764 14.5511 29.3236 14.6344 29.3274 14.7006C29.3311 14.7593 29.4161 14.8294 29.4501 14.871C29.4708 14.8956 29.4954 14.8937 29.5161 14.924C29.5482 14.9713 29.6124 15.1285 29.6464 15.1455C29.6898 15.1682 29.7389 15.1909 29.7898 15.1588C29.8332 15.1323 29.8804 15.0584 29.8804 15.0092L29.8276 14.7801C29.8049 14.748 29.7861 14.7271 29.7634 14.695C29.72 14.6363 29.6671 14.5776 29.6332 14.5321C29.6067 14.4962 29.569 14.4526 29.5161 14.4526C29.4576 14.4526 29.4557 14.4848 29.4236 14.5113V14.5113Z" fill="black"/>
<path d="M30.6805 11.3135C30.656 11.3173 30.6484 11.3192 30.6277 11.3192C30.6163 11.3192 30.5918 11.3173 30.5824 11.3192C30.5522 11.3305 30.5446 11.3286 30.5107 11.3324C30.4748 11.3381 30.4427 11.34 30.4068 11.34C30.3389 11.34 30.3408 11.3627 30.3294 11.4176C30.32 11.4573 30.3049 11.5122 30.3351 11.5425C30.3464 11.552 30.4125 11.5766 30.4333 11.5747C30.471 11.5709 30.5088 11.5558 30.5427 11.535C30.5654 11.5236 30.5899 11.5122 30.6088 11.4971C30.6749 11.4422 30.7239 11.4252 30.8108 11.4252L30.6805 11.3135V11.3135Z" fill="black"/>
<path d="M70.0119 89.7743C69.8741 89.5528 69.7457 89.5396 69.5306 89.4619C69.4626 89.4373 69.4022 89.2632 69.3022 89.1988C69.0398 89.0322 68.9624 89.2594 68.8662 88.8524C68.8303 88.6025 68.249 88.5665 68.249 88.1198C68.249 87.7165 68.4773 87.6332 68.3075 87.2641C68.1867 87.0028 68.164 86.8836 67.8771 86.7662C67.779 86.7265 67.8035 86.6034 67.7412 86.5258C67.6506 86.4141 67.4581 86.3138 67.3316 86.2437C66.7314 85.9105 67.6714 85.8803 67.5657 85.6682C67.4996 85.5357 67.3883 85.2839 67.4033 85.1249C67.409 85.0473 67.9488 85.0075 68.0073 85.0662C68.0621 85.1211 68.096 85.282 68.1772 85.3029C68.2093 85.4392 68.2735 85.5963 68.2735 85.7667C68.3773 85.7932 68.4755 85.8538 68.5924 85.8708C69.1832 85.8708 68.9586 87.0408 69.1398 87.2376C69.2134 87.319 69.5438 87.3815 69.5438 87.2111C69.8118 87.1448 69.5438 86.8287 69.5438 86.7794C69.7929 86.717 69.6344 86.1491 69.6929 85.9238C69.7891 85.5584 70.4705 85.5868 70.3686 85.1779C70.2384 84.6516 70.6875 85.1968 70.6875 84.8447C70.6875 84.4888 71.3652 84.6687 71.2991 84.2825C71.2764 84.15 71.2745 83.9663 71.4105 83.883C71.7068 83.7013 72.5656 83.4438 72.7902 83.5555C72.8128 83.5669 73.4659 83.5782 73.4999 83.529C73.5867 83.4041 73.7906 83.2375 73.9415 83.1902C74.2417 83.0974 74.638 83.0179 74.638 82.7983C75.0457 82.7983 76.0555 84.0117 76.3481 83.2545C76.5028 83.1391 76.8293 83.052 76.818 82.8229C76.8105 82.7074 76.7274 82.3629 76.818 82.3194L77.8449 81.8366C77.994 81.7666 78.5225 82.1944 78.632 81.8499L78.9717 80.7898C78.9849 80.786 78.983 80.7614 78.9962 80.7576C78.9962 80.2919 79.4474 80.8087 79.4851 80.8087C80.0004 80.8087 79.721 80.3752 79.8305 80.3392C79.9645 80.2938 80.2212 80.273 80.3043 80.201C80.4949 80.0401 80.1457 79.5176 80.3949 79.6255C80.4119 79.741 81.0404 80.326 81.1442 80.326C81.365 80.326 81.7067 79.8773 81.8463 79.705C81.9539 79.5744 81.7614 79.5195 82.0426 79.2923C82.3559 79.0387 81.8331 78.8815 82.3144 78.6317C82.5994 78.4897 82.9316 78.7718 83.1279 78.4234C83.3261 78.0694 83.4148 78.4878 83.681 78.4878C83.915 78.4878 83.915 78.3515 84.0452 78.325C84.1019 78.0429 84.9248 78.3515 85.0475 78.3515C85.2154 78.3515 85.8025 78.0486 85.81 77.9445C85.827 77.6586 85.6212 77.6813 85.776 77.369C85.9308 77.0585 86.4329 77.4788 86.4329 77.1021C86.4329 76.5493 87.2973 77.2762 87.3974 76.873C87.4937 76.8578 87.5559 76.9317 87.6692 76.9317C87.7617 76.6496 88.2864 76.4187 88.562 76.3108C88.8791 76.2312 89.2301 76.0552 89.3491 75.7485C89.4944 75.3699 89.9172 75.8091 90.2268 75.6425C90.3664 75.5687 90.8572 75.4664 90.9044 75.3812C91.0478 75.12 91.112 74.6808 90.6892 74.7546C90.4646 74.7925 90.3966 74.5767 90.1946 74.5388C89.8115 74.465 90.1059 74.2871 90.1814 74.1791C90.2985 74.0088 89.9757 74.1413 89.9531 74.1526C89.753 74.2587 89.5114 74.0296 89.5378 73.8119C89.5718 73.5241 89.6869 73.3765 89.6869 73.0414C89.9606 73.0414 90.2475 73.1266 90.5136 73.1133C90.9459 73.0906 90.7043 73.4976 91.1309 73.4787C91.3234 73.4693 91.4593 73.2951 91.6254 73.2951C91.6858 73.2951 91.7763 73.4541 91.8405 73.4125C91.9878 73.3178 91.8915 73.172 91.9576 73.0736C92.1557 73.1228 91.8311 73.4106 92.2312 73.5696L92.7258 73.7665C92.8164 73.8024 92.9655 74.1867 92.9277 74.2757C92.8692 74.5085 92.5634 74.8928 92.5634 75.0613C92.739 75.12 92.773 75.1635 93.0051 75.1522C93.1429 75.1465 93.3656 75.05 93.409 74.9175C93.4336 74.9175 93.4355 74.925 93.4543 74.9307C93.4921 75.084 93.5865 75.1219 93.4996 75.2961C93.4147 75.4665 93.4015 75.4532 93.4015 75.6766C93.4015 75.794 93.3015 75.8981 93.2467 75.9965C93.0617 76.3221 94.0923 76.2862 94.1961 76.5853C94.2565 76.7632 94.3018 76.678 94.4169 76.7481C94.5774 76.6269 94.8699 76.7291 95.0417 76.7291C95.0587 76.6572 95.1851 76.3789 95.2304 76.2899L95.3871 76.0022C95.3305 75.9473 95.2757 75.9019 95.2757 75.8318C95.2757 75.775 95.3135 75.7031 95.4192 75.5971C95.5249 75.4911 96.0251 74.7982 96.0496 74.6827C96.0987 74.4631 96.1213 74.4063 96.2723 74.2378C96.5498 73.9236 96.5875 73.1928 96.6819 72.7991C96.7178 72.6457 96.8933 72.623 96.9216 72.4451C96.9405 72.3334 96.9027 72.233 96.8971 72.1251C96.882 71.8847 96.982 71.5818 97.0726 71.3603C97.2331 70.9628 97.1538 70.3608 97.3576 69.986C97.435 69.8478 97.5275 69.8307 97.5275 69.6395C97.5275 69.2116 97.2859 68.8689 97.0462 68.5149C96.9613 68.39 96.8046 68.07 96.8178 67.9129C96.8405 67.6801 96.9688 67.752 96.7857 67.5021C96.6876 67.3658 96.8442 67.2958 96.8122 67.1935C96.7669 67.0515 96.7178 66.9758 96.7857 66.8206C96.8914 66.5859 96.7518 66.4212 96.6687 66.1864C96.58 65.9365 96.0402 65.8078 95.8288 65.7548C95.5664 65.6885 95.4135 65.5674 95.1927 65.4216C95.1266 65.3781 95.1266 65.2304 95.0681 65.2058C94.9435 65.1547 94.6699 65.2247 94.5547 65.1471C94.3924 65.0392 94.3264 64.8991 94.2357 64.7287C93.9941 64.2782 94.4566 64.1211 94.685 63.8333C94.802 63.6838 94.5755 63.095 94.534 62.8906C94.4094 62.2564 93.8526 62.0614 93.6506 61.4727C93.5751 61.2588 93.4638 60.5792 93.2599 60.5243C93.0315 60.4618 92.99 60.3425 92.9674 60.0794C92.9447 59.8503 93.8224 59.0572 93.962 58.83C94.2546 58.3548 93.979 57.7604 94.2622 57.3856C94.349 57.2701 94.1678 57.0808 94.2678 56.9786C94.3773 56.8688 94.4358 56.723 94.4887 56.5811C94.5906 56.3122 94.617 56.0529 94.5264 55.8579C94.3886 55.7651 94.3169 55.5948 94.0866 55.5474C93.762 55.4812 93.779 55.0382 93.8318 54.7959C93.9149 54.4078 94.164 54.3945 93.8979 54.0235C93.7431 53.8096 94.2452 53.6808 94.2282 53.3761C94.1923 52.7059 93.1259 52.7078 92.79 52.3103C92.6352 52.1248 92.6201 51.5152 92.4918 51.2369C92.4125 51.0684 92.5182 50.8886 92.4144 50.6879C92.2879 50.4475 92.4257 50.3187 92.4597 50.0802C92.5219 49.624 92.6937 49.8341 92.9013 49.5502C93.1052 49.2719 93.3807 48.8062 93.1561 48.5241C92.9296 48.2401 93.243 47.835 93.3638 47.5625C93.4714 47.3164 93.2562 47.3447 93.1618 47.0986C93.1406 47.0432 93.1046 46.9844 93.0594 46.9258L11.5505 46.9258C11.5469 46.9618 11.5428 46.9976 11.5374 47.0325C11.5053 47.2445 12.0451 47.6686 11.8639 47.7121L11.5185 47.7973C11.4751 47.8087 11.2448 47.8105 11.2448 47.8238C11.2542 47.8276 11.2561 47.8333 11.258 47.8446C11.4166 47.8844 11.3486 48.7817 11.3486 48.9558C11.6884 49.0694 11.8261 49.4196 12.1942 49.4196C12.768 49.4196 12.9247 49.5048 13.4512 49.6941C13.9325 49.7301 13.9741 49.9762 14.1723 49.4196C14.3478 48.9331 14.7177 49.9932 14.8046 50.2052C14.8725 50.3718 15.1198 50.3169 15.1745 50.5706C15.3444 51.3524 14.6422 51.979 14.8178 52.7154C14.8574 52.8839 15.0235 52.8782 15.0707 53.0486C15.1726 53.414 14.697 53.3099 14.512 53.2644C14.3157 53.219 14.2345 53.7093 14.0817 53.7945C14.0515 53.8948 13.9495 53.9838 13.9325 54.0557C13.4777 54.1485 13.253 54.4003 13.1323 54.8338C13.0605 55.0894 12.817 55.1821 12.566 55.1215C12.4924 55.1045 11.9733 55.1291 11.9733 55.1613C12.0243 55.1783 11.928 55.4188 11.928 55.4623C11.794 55.5399 11.7355 55.7841 11.5184 55.8163C11.5147 55.8277 11.3184 55.9299 11.3108 55.9337C11.3071 55.9583 11.2901 55.9621 11.2901 55.9924C11.2806 55.9962 11.2467 56.2896 11.2637 56.3577C11.694 56.4675 13.4513 57.6696 12.4283 57.9271C12.3301 58.3228 12.2659 58.5802 11.8828 58.8168C11.7167 58.921 11.5091 59.1178 11.3694 58.8433C11.1938 58.5007 10.8617 58.7657 10.6144 58.9418C10.5087 59.0743 10.4219 58.8736 10.2822 58.9872C10.0746 59.1576 9.79522 59.097 9.6631 59.2295C9.58006 59.3128 9.3007 59.5514 9.19501 59.576C8.87035 59.6536 8.70426 59.3393 8.38906 59.3393C8.22863 59.3393 8.32867 59.894 8.27769 60.0985L7.86245 59.7842C7.71712 59.6763 7.64916 59.6366 7.4774 59.6801C7.33018 59.718 7.28677 59.4946 7.1924 59.4245C7.03951 59.3147 6.62239 59.3128 6.4242 59.2806C6.14107 59.2371 6.00895 58.8301 5.67487 58.7051C5.48422 58.6351 5.11995 58.8604 5.21999 58.9607C5.35023 59.0932 5.72017 59.2295 5.74659 59.4453V59.7123L5.38987 59.6914L4.97272 59.6157L4.86702 59.5059L4.62731 59.7463L4.60844 59.7596C4.43856 59.877 4.163 59.9659 3.96481 60.0341C3.71944 60.1174 3.60431 60.1041 3.60431 60.1647C3.60431 60.2082 3.66849 60.2934 3.78928 60.4903C3.91197 60.691 4.00069 60.797 3.94406 61.0204C3.91763 61.1283 3.53637 61.5164 3.82137 61.5372C4.09883 61.558 4.34609 61.8477 4.56881 61.9045C4.56881 61.984 4.43669 62.0881 4.47821 62.2509C4.54804 62.5254 4.31966 62.5935 4.65375 62.7336C4.75 62.7753 5.3238 62.9286 5.33135 62.957H5.34457C5.34457 63.1368 5.1445 63.2921 5.20111 63.5117C5.03878 63.7369 5.2332 63.8392 5.36911 63.9774C5.45027 64.0569 5.36911 64.1742 5.49935 64.2916C5.61825 64.3976 5.88439 64.4639 5.88439 64.6627C5.88439 64.8103 6.01086 65.064 6.16373 65.1018C6.25056 65.4615 6.41099 65.6527 6.41099 66.0957C6.41099 66.4403 6.23358 66.8833 6.31285 67.2013C6.37891 67.2165 6.56012 67.1464 6.56012 67.2467C6.45819 67.2714 6.48839 67.544 6.49593 67.6254C6.50726 67.7787 6.40345 67.9396 6.29965 68.057C6.28643 68.0816 6.24679 68.1838 6.21471 68.1876C6.20337 68.2369 6.04671 68.2406 5.99387 68.2406C5.89949 68.2406 5.5975 69.0376 5.45405 69.1815C5.2653 69.3727 5.04635 69.562 4.96708 69.829L4.83684 70.2606C4.79154 70.4082 4.89535 71.0992 5.15582 70.9932C5.30682 70.9326 5.39553 70.7604 5.55786 70.6733C5.59183 70.6562 5.93535 70.5351 5.93535 70.6146C5.94856 70.6165 5.99386 70.7339 5.99386 70.7585C6.0033 70.7623 6.0014 70.7585 6.0014 70.7717C5.94099 70.7793 5.66166 70.8834 5.66166 70.9553C5.7919 70.9875 6.11087 71.3396 5.7598 71.3396C5.40495 71.3396 5.20678 71.6728 4.91421 71.7921C4.77831 71.847 4.69149 72.0779 4.56314 72.165C4.24982 72.3733 4.04221 72.3278 3.85345 72.7064C3.83835 72.8162 3.75341 73.2251 3.55524 73.1248C3.44387 73.0699 3.26834 72.7538 3.22304 72.7538C3.18907 72.8863 2.84176 72.9753 2.74173 73.0075C2.74173 73.1078 2.86443 73.2725 2.86443 73.4466C2.86443 73.5224 3.07394 73.6908 3.13056 73.7798C3.26834 73.9881 3.0173 74.1944 3.48351 74.0278C3.76287 73.9275 4.45177 73.9256 4.32157 74.3023C4.1668 74.7529 4.30081 75.0482 4.8425 75.0482C4.90102 75.2848 4.8727 75.4855 5.00482 75.7808C5.32382 76.4945 4.44424 76.025 4.348 76.4869C4.28759 76.7822 4.23096 76.7311 3.98937 76.8731C3.6515 77.0738 4.19321 77.2423 4.24984 77.3558L4.33478 77.9522L4.52353 78.0298C4.44804 78.2324 4.39518 78.6167 4.73114 78.416C4.80476 78.3724 5.34269 78.4273 5.3559 78.4822C5.39743 78.4917 5.44273 78.8059 5.47292 78.8665C5.56731 79.0521 5.82966 79.1978 5.90893 79.3966C6.0033 79.6276 5.84287 79.6881 5.89761 79.9077C6.2166 79.9891 6.59976 79.9967 6.93198 80.0648V80.0838C6.91877 80.0876 6.91311 80.1046 6.89234 80.1103L6.77532 80.4757C6.6734 80.7937 6.58278 80.4813 6.45066 80.5154C6.40913 80.6801 6.23549 80.8978 6.09204 80.9924C5.74098 81.2272 6.25058 81.4033 6.26758 81.4903C6.30532 81.5812 6.40725 82.0431 6.46198 82.0715C6.48841 82.0848 6.87535 82.0791 6.93762 82.0791C7.0773 82.0791 7.71149 82.2021 7.71149 82.3138C7.71149 82.505 7.54349 82.6716 7.82285 82.7644C8.10597 82.8609 7.98706 83.4289 7.83607 83.6087C7.35287 84.1823 8.12863 84.1312 8.17392 84.5439C8.25508 84.6858 8.19279 84.7691 8.23998 84.9035C8.28528 85.0361 8.03424 85.0039 7.96629 85.0209C7.91533 85.2273 7.69638 84.9622 7.65297 84.9433C7.51141 84.8751 7.3925 85.0436 7.28303 85.1004C7.03011 85.2273 7.16978 85.4752 7.08107 85.7081C6.9263 86.1094 6.19961 85.7005 6.08448 86.1587C5.99765 86.5145 5.98821 86.8932 5.98821 87.2642C5.86175 87.2964 5.62582 87.0976 5.65036 87.4138C5.65602 87.4952 5.80135 87.8624 5.65602 87.8984L5.52014 88.029C5.5088 88.188 5.36724 88.6556 5.36724 88.9226C5.36724 88.9926 5.37858 89.0494 5.40311 89.0816C5.53145 89.2463 5.57865 89.5492 5.57865 89.7423C5.57865 89.7806 5.58789 89.843 5.60312 89.917H70.2225C70.1192 89.8608 70.029 89.8038 70.0111 89.7744L70.0119 89.7743Z" fill="#DE122B"/>
<path d="M48.0986 132.738C48.2364 132.587 48.612 132.494 48.8082 132.451C49.1839 132.367 49.231 131.936 49.399 131.595C49.5312 131.33 49.6859 131.345 49.8936 131.137C50.0276 131.002 49.9332 130.777 50.1087 130.614C50.3805 130.361 50.3314 130.391 50.2578 130.005C50.1899 129.653 49.8237 129.543 49.9275 129.128C49.9596 128.992 50.1502 128.803 50.0691 128.664C50.0257 128.591 49.9256 128.363 49.92 128.278C49.9068 128.042 50.0294 128.1 50.1672 128.134C50.3182 128.172 50.4051 128.062 50.2975 128.291C50.2031 128.496 50.105 128.619 50.3692 128.736C50.5617 128.822 51.3337 129.015 51.4564 128.795C51.547 128.63 51.5225 128.435 51.7811 128.435C51.9698 128.435 52.1718 128.553 52.3605 128.619L52.7456 128.782L52.9381 129.312C53.0608 129.293 53.174 129.316 53.2967 129.306C53.6119 129.278 53.9101 129.022 54.214 128.939C54.4009 128.89 54.8784 128.893 54.8784 129.162C54.8104 129.162 54.4782 129.272 54.4613 129.338C54.4537 129.367 54.416 129.619 54.4235 129.632C54.4613 129.711 54.8595 129.636 54.9822 129.672C55.2012 129.736 55.1408 130.037 55.2823 130.116C55.2653 130.109 55.2616 130.105 55.2484 130.116C55.3993 130.27 55.5522 130.26 55.5032 130.516C55.4182 130.959 55.6919 130.997 56.1072 131.012C56.3676 131.023 56.7394 131.074 56.966 130.947C57.217 130.809 57.8455 130.336 58.1513 130.417C58.3645 130.474 58.2758 130.684 58.4627 130.698C58.7269 130.72 58.8307 130.592 59.0365 130.436C59.1403 130.355 59.2705 130.135 59.3932 130.135C59.6216 130.135 59.9972 130.317 60.1935 130.268C60.1935 130.001 60.0142 130.001 59.8556 129.882C59.682 129.751 60.2992 129.204 60.5125 129.221C60.8183 129.246 61.2977 129.217 61.5733 129.312C61.8035 129.391 62.0583 128.388 62.0999 128.206C62.1584 127.962 62.5434 128.123 62.7114 128.174C63.0814 128.288 63.5098 128.138 63.876 128.057C64.0799 128.047 64.212 128.174 64.397 128.174C64.5404 128.174 64.5763 128.007 64.6442 127.913C64.8575 127.614 65.8447 127.724 66.2051 127.612C66.3146 127.578 66.4128 127.655 66.5052 127.684C66.7449 127.758 66.8959 127.697 67.1432 127.697C67.3584 127.697 67.4679 127.886 67.6755 127.847L68.1285 127.896C68.253 127.678 68.2738 127.491 68.2096 127.18C68.1568 126.919 67.9907 126.675 67.8397 126.431L68.2625 126.219C68.3852 126.061 69.0213 125.45 68.7627 126.016C68.6966 126.162 68.5475 126.707 68.8476 126.73C68.9382 126.735 69.025 126.54 69.1005 126.501C69.2043 126.446 69.5649 126.487 69.6875 126.514C69.8385 126.546 69.8215 126.629 70.0311 126.618C70.2708 126.605 70.4048 126.355 70.6822 126.415C70.7728 126.434 70.82 126.932 70.9484 127.036C70.9654 127.133 71.3523 127.593 71.4825 127.462C71.6411 127.301 72.0223 127.458 72.0223 127.383C72.2054 127.279 72.1922 126.591 72.732 126.879C72.8755 126.957 73.1208 126.461 73.4285 126.696C73.604 126.832 73.8513 126.815 74.0665 126.839C74.2382 126.862 73.9608 127.069 74.1627 127.252C74.5516 127.606 74.6384 127.481 74.3326 127.926C73.9513 128.481 74.812 128.676 74.9838 128.933C75.114 129.13 76.0257 129.825 76.2446 129.77C76.2579 129.704 76.3315 129.738 76.3617 129.743C76.4372 130.05 76.8298 129.749 76.9279 129.639C77.0204 129.537 76.8637 129.134 76.909 128.973C76.9373 128.867 77.128 128.655 77.0393 128.541C76.9147 128.38 76.8637 128.214 77.1035 128.214C77.2544 128.214 77.2658 127.926 77.2866 127.822C77.3281 127.618 77.7282 127.472 77.4809 127.167C77.2828 126.921 77.1582 126.277 76.843 126.179C76.4617 126.061 75.8539 126.571 75.5557 125.971C75.601 125.77 75.667 125.656 75.8879 125.656C76.0106 125.287 76.2314 124.748 76.4277 124.394C76.5315 124.208 76.5712 124.019 76.4541 123.826C76.373 123.693 76.2144 123.279 76.0427 123.243C76.0427 123.227 76.0106 123.188 75.9974 123.184C75.9747 123.095 75.9426 122.944 75.9067 122.858C75.8652 122.752 75.9067 122.707 75.7765 122.707C75.667 122.707 75.6425 122.482 75.5745 122.387C75.5217 122.313 75.1838 122.465 75.1838 122.243C75.1102 122.025 75.0611 121.736 74.9573 121.543C74.7082 121.086 73.5474 120.681 73.923 119.994C73.9758 119.896 74.0513 119.498 74.1495 119.739C74.2967 120.096 74.3363 119.411 74.5798 119.411C74.8441 119.411 74.8837 118.919 75.1253 118.849L75.3707 118.574C75.4216 118.591 75.467 118.599 75.5028 118.593C76.2333 118.5 76.154 118.434 76.6032 117.914C76.8221 117.66 77.1203 117.531 77.4356 117.418C77.7092 117.317 77.815 117.465 78.1264 117.221C78.3284 117.062 78.9738 117.194 79.2324 117.168C79.6495 117.126 80.078 116.518 80.3309 116.227C80.5083 116.022 80.9103 115.964 80.833 115.585C80.7518 115.203 81.1123 115.203 80.9103 114.794C80.7688 114.508 80.8952 114.48 81.0142 114.239C81.0632 114.139 81.0859 113.993 81.1123 113.885C81.1689 113.658 81.0727 113.217 81.2614 113.041C81.3879 112.925 81.5842 113.069 81.6521 112.865C81.6823 112.774 81.6785 112.674 81.6918 112.577C81.8088 112.509 81.8956 112.499 81.9767 112.67C82.024 112.766 82.2467 113.056 82.3939 112.969C82.6393 112.825 83.0904 112.988 83.2791 113.27C83.4471 113.525 83.7321 113.531 83.8888 113.728L84.2285 113.44C84.2398 113.31 84.1832 113.192 84.1889 113.062C84.1964 112.906 84.3814 113.145 84.4701 113.003C84.5305 112.903 84.6683 112.88 84.7759 112.859C84.8004 112.753 84.7646 112.643 84.7495 112.537C84.723 112.369 84.9118 112.331 84.9703 112.153C84.9892 112.094 85.0062 111.678 84.9703 111.668C84.9684 111.657 84.9457 111.632 84.9382 111.629C84.9382 111.532 84.9325 111.403 84.9571 111.309C84.9835 111.208 84.9401 111.208 84.925 111.125C84.9099 111.04 85.0741 111.008 84.9891 110.864C84.9344 110.771 84.723 110.665 84.723 110.55C84.9797 110.485 84.9533 110.372 84.9382 110.158C84.9325 110.084 84.9684 110.025 85.0288 109.987C85.1741 109.898 85.1383 109.792 85.1911 109.648L84.9439 109.55C84.7532 109.453 84.8023 109.222 84.7683 109.045C84.7117 108.751 84.4871 108.8 84.3588 108.607C84.2681 108.471 84.2021 108.416 84.2021 108.248C84.2021 108.13 84.1323 107.856 83.9945 107.92C83.8774 107.975 83.7566 107.967 83.6226 107.973C83.3905 108.089 83.3735 107.78 83.2263 107.619C83.0488 107.426 82.9752 107.206 82.9261 106.96C82.7808 106.96 82.6902 106.983 82.6336 106.803C82.5675 106.587 82.5166 106.659 82.3146 106.659C81.9654 106.659 81.6313 106.39 81.737 106.92C81.805 107.265 81.4237 106.86 81.3784 106.828C81.3048 106.775 81.1897 106.752 81.1123 106.705C80.9367 106.595 80.8197 106.504 80.6555 106.364C80.5706 106.108 80.7008 105.605 80.5517 105.397C80.3743 105.15 80.1685 104.984 79.9609 104.762C79.893 104.689 79.506 104.251 79.4588 104.24C79.4475 104.194 79.2116 104.255 79.1663 104.259C79.0115 104.272 78.8794 104.255 78.7303 104.246C78.5812 104.236 78.3811 103.943 78.2414 103.873C78.2339 103.799 78.2187 103.655 78.2414 103.579C78.2829 103.449 78.1319 103.375 78.0602 103.271C77.9507 103.182 77.7469 103.025 77.6959 102.898C77.6487 102.782 77.7337 102.614 77.5789 102.585C77.3297 102.536 77.4109 102.351 77.1882 102.218C77.0164 102.118 77.209 101.966 76.973 101.917C76.6956 101.858 76.8881 101.597 76.7843 101.387C76.7503 101.317 76.1784 100.774 76.0953 100.728C75.9142 100.626 75.6763 100.685 75.5159 100.59C75.2686 100.444 75.2724 100.747 75.2366 100.891L75.229 100.897C75.1781 100.897 74.944 100.704 74.8912 100.668C74.6703 100.558 74.5552 100.635 74.3325 100.635C74.1871 100.635 74.1947 100.386 74.1229 100.302C74.0569 100.223 74.0022 100.162 73.9606 100.068C73.9116 99.9558 73.9455 99.8612 73.8832 99.7589C73.7869 99.6018 73.5756 99.6245 73.519 99.4523C73.4453 99.2289 72.9036 99.598 72.9527 99.085C72.9527 98.9014 72.596 98.5095 72.7508 98.4262C72.8866 98.3505 72.764 97.8924 72.764 97.739C72.0618 97.5611 72.1789 97.4021 72.1128 96.7509C72.0996 96.6165 71.9278 96.5672 71.9184 96.3855C71.9014 96.1015 71.5673 96.3117 71.573 96.0902L71.5937 95.2667C71.5937 95.1607 71.1879 95.1209 71.086 95.0698C70.952 94.9354 70.7991 94.9335 70.6821 94.7631C70.6179 94.6704 70.6198 94.5908 70.5783 94.4943C70.499 94.3163 70.2782 94.3201 70.2782 94.0759C70.2782 93.7446 70.9425 93.6935 70.9878 93.3963C71.0237 93.1597 71.0728 92.8397 71.0728 92.6126C71.2804 92.6126 71.2407 92.764 71.3332 92.4876C71.371 92.3703 71.4918 92.3116 71.5465 92.1412C71.6334 91.8724 71.9542 91.7455 71.7938 91.4673C71.6654 91.242 71.4106 91.3745 71.203 91.206C71.1181 91.0981 71.0029 91.0053 71.0728 90.8596C71.1162 90.7668 71.2389 90.7592 71.2804 90.6759C71.3408 90.5548 71.0331 90.3579 71.0142 90.2178C70.8085 90.1667 70.6122 90.4109 70.565 90.0683C70.5179 90.0618 70.3593 89.9894 70.2234 89.9155H5.60406C5.65204 90.1486 5.76079 90.4988 5.83817 90.5908C6.08731 90.8861 6.49501 91.0356 6.54219 91.4994C6.62713 91.9803 6.93291 92.2851 7.42741 92.2851C7.44063 92.3419 7.46328 92.8397 7.56332 92.7489C7.89929 92.446 7.72187 92.6296 8.07105 92.7167C8.12012 92.9155 8.62974 93.3263 8.81283 93.1218C8.88079 93.0461 9.53384 93.154 9.53384 93.3054C9.34322 93.4153 9.48855 94.1138 9.48855 94.3259L9.58293 94.6496C9.53008 94.6609 9.49043 94.6855 9.47533 94.731C9.47156 94.7442 9.40362 94.8218 9.38474 94.8294C9.30168 94.8673 8.97894 95.1361 8.89022 95.208C8.84115 95.2497 8.47498 95.5185 8.62409 95.6605C8.73923 95.7684 8.64862 96.1167 8.52594 96.2549C8.43346 96.359 8.17487 96.7452 8.04464 96.785C8.03897 96.7869 8.03897 96.802 8.04464 96.8039C8.20697 96.8512 7.98613 96.9705 7.94082 97.0273C7.87854 97.103 8.10882 97.1144 8.05785 97.2677C8.00501 97.4267 7.87666 97.5441 7.85589 97.7201C7.82192 98.0079 8.06352 98.2218 7.98613 98.5304C7.96913 98.6023 7.94649 98.6705 7.92007 98.7367C8.00122 98.75 8.08239 98.7538 8.15978 98.7538C8.33342 98.7538 8.50142 98.7329 8.6826 98.7329C8.86192 98.7329 8.95252 98.9109 9.08653 98.962C9.23753 99.0207 9.78113 99.1816 9.72262 99.3671C9.56785 99.8726 10.2398 99.8498 10.3342 100.31C10.3493 100.374 10.3625 100.581 10.2511 100.539C10.2152 100.526 9.76982 100.329 9.98309 100.598C10.0945 100.736 10.2058 100.819 10.3096 100.976C10.1133 101.326 10.7324 101.41 10.8872 101.605C10.9646 101.699 10.957 101.762 10.9665 101.885C10.9778 102.034 11.1741 102.099 11.1741 102.146C11.1835 102.15 11.1816 102.146 11.1816 102.159C11.1854 102.161 11.1665 102.485 11.1816 102.54C11.2553 102.833 11.5478 102.549 11.6233 102.847C11.6988 103.14 11.5648 103.398 11.8517 103.638C12.2065 103.954 12.7992 104.134 12.9502 103.539C13.0068 103.318 12.7444 102.591 12.9823 102.631C13.6316 102.739 14.2223 102.688 14.7131 103.382C14.8037 103.509 15.0925 104.959 15.3378 103.952C15.4699 103.411 15.7285 104.017 15.9701 104.096C16.1721 104.162 16.2117 104.07 16.3854 104.07C16.5005 104.07 16.476 104.24 16.5873 104.24C16.7629 104.24 16.8365 103.981 17.1404 104.083C17.8331 104.314 17.4329 103.897 17.9614 103.859C18.3937 103.829 18.069 103.31 18.6315 103.31C18.8825 103.176 18.9958 103.159 19.0146 103.409C19.0203 103.486 19.6639 103.581 19.6526 103.716C19.6394 103.88 19.4355 103.859 19.6715 104.017C19.8734 104.151 19.9527 104.431 20.0622 104.632C20.2113 104.903 20.5076 104.723 20.7322 104.815C20.9663 104.91 20.9417 105.027 21.0833 105.202C21.2324 105.381 21.4759 105.353 21.6439 105.239C21.8987 105.065 22.2649 105.556 22.5537 105.285C22.7934 105.063 22.7764 105.164 23.035 105.338C23.2464 105.48 23.8485 105.567 24.0372 105.391C24.3486 105.101 24.4468 105.639 24.8318 105.665C24.9677 105.764 25.1697 105.751 25.2735 105.894C25.4471 106.135 25.583 106.241 25.885 106.313C26.0039 106.341 26.1474 106.358 26.2701 106.358C26.4135 106.358 26.5192 106.468 26.6532 106.476L27.0496 106.699C26.959 106.75 26.908 106.777 26.8684 106.796C26.7117 106.875 26.6174 107.276 26.4588 107.392C26.1379 107.623 25.936 109.293 25.5925 109.406C25.5245 109.429 25.2791 109.336 25.2017 109.425C25.1376 109.501 25.1281 109.79 25.0073 109.83C24.7525 109.915 24.3562 109.874 24.3562 110.216C24.3562 110.737 24.0957 110.905 23.7842 111.303C23.7031 111.405 23.3539 111.697 23.2237 111.727C23.0009 111.778 23.118 112.083 23.0557 112.198C23.0085 112.284 22.7744 112.484 22.7744 112.551V113.592C22.7744 113.592 22.5876 113.902 22.4762 114.101C22.3573 114.311 22.4951 114.285 22.4951 114.514C22.4951 114.682 22.2648 115.036 22.1969 115.212C22.0704 115.536 21.8855 115.86 22.0214 116.174C22.3932 117.039 21.7194 116.662 21.5985 117.247C21.5155 117.639 21.4966 118.372 21.0569 118.574C20.8322 118.678 20.9417 119.055 20.8039 119.254C20.4245 119.805 20.2471 120.717 20.4849 121.385C20.6227 121.77 21.072 121.946 20.668 122.387C20.4982 122.571 20.5529 122.856 20.5038 123.093C20.4472 123.366 20.2433 123.432 20.2566 123.74C20.2754 124.157 20.2396 124.325 20.0433 124.668C19.8809 124.952 19.9697 125.463 19.998 125.781C20.0093 125.927 20.0867 126.012 19.9583 126.12C19.5827 126.44 19.9545 126.923 20.1603 127.212C20.2716 127.371 20.3906 127.479 20.5246 127.598C20.6605 127.72 20.6095 127.966 20.6095 128.147L20.9662 127.971C21.0606 127.932 21.1059 127.822 21.1984 127.788C21.2512 127.769 21.3381 127.801 21.3343 127.867C21.3305 127.918 21.3098 127.954 21.3173 128.011C21.3249 128.072 21.3777 128.166 21.3569 128.219C21.3305 128.289 21.2305 128.333 21.172 128.373L21.0021 128.649C21.0247 128.668 21.0455 128.683 21.0644 128.696C21.6023 129.092 21.8722 128.672 22.4441 128.638C22.6612 128.626 22.8348 128.43 22.899 128.246C22.9443 128.112 23.6521 128.123 23.7446 128.182C23.9126 128.284 23.7314 128.723 24.0636 128.723C24.2693 128.723 24.3278 128.573 24.5449 128.573C24.8714 128.573 25.0866 128.753 25.3848 128.475C25.5434 128.327 25.5415 128.373 25.6585 128.507C25.7208 128.581 25.8623 128.265 25.9246 128.233C26.0209 128.183 26.4758 128.045 26.5418 127.985C26.6777 127.86 26.8608 127.538 27.0307 127.612C27.144 127.661 27.3686 127.631 27.4346 127.689C27.4648 127.718 27.8442 128.072 27.9292 128.129C28.0915 128.238 28.2123 128.365 28.4029 128.409C28.5218 128.437 28.6898 128.35 28.788 128.305C28.905 128.25 29.1504 128.331 29.3013 128.331C29.5675 128.331 29.6449 128.233 29.8223 128.161C29.8336 128.157 29.8336 128.127 29.8223 128.121C29.441 128 29.7676 127.795 29.8487 127.67C29.9393 127.528 30.2206 127.292 30.4017 127.462C30.4395 127.498 31.0529 128.263 31.0718 127.788C31.0793 127.593 31.019 127.519 31.1039 127.337C31.1983 127.137 31.119 127.006 31.1492 126.856C30.9925 126.762 30.6018 126.843 30.4603 126.959C30.2885 127.097 30.2866 127.301 29.9846 127.148C29.6939 126.998 29.1654 127.39 29.1654 126.781C29.1654 126.665 29.1975 126.434 29.2372 126.323C29.2995 126.137 29.3768 126.143 29.4844 126.023C29.5788 125.914 29.5675 125.791 29.6203 125.669C29.6883 125.516 29.9167 125.245 30.0828 125.206C30.1847 125.181 30.3489 125.236 30.4791 125.211C30.6528 125.181 30.7981 124.551 31.0246 124.806C31.2568 125.067 31.153 125.221 31.5663 125.395C31.6739 125.353 31.7569 125.342 31.8589 125.291C31.9551 125.242 32.1741 125.173 32.2741 125.225C32.3591 125.268 32.3798 125.404 32.3458 125.486C32.2892 125.624 32.1193 125.719 32.1703 125.885C32.1948 125.963 32.2571 125.986 32.3137 126.035C32.3723 126.09 32.3534 126.122 32.3911 126.173L32.3591 126.451L32.6894 126.635L33.0499 126.695L33.0291 126.429C32.9819 126.321 32.8498 126.084 32.9914 125.989C33.0669 125.94 33.1914 125.97 33.2707 126.003C33.3368 126.029 33.384 126.095 33.4595 126.114C33.5387 126.135 33.6709 126.141 33.7199 126.213C33.7822 126.304 33.6727 126.364 33.6614 126.461L33.6407 126.769C33.7313 126.809 33.8011 126.856 33.8502 126.919C34.2277 127.403 35.0771 126.779 35.547 126.644C35.866 126.553 36.0906 126.633 36.3548 126.775C36.4662 126.836 36.5832 126.873 36.6474 126.978C36.7267 127.106 36.8947 127.049 37.0041 127.095C37.0513 127.114 37.1042 127.087 37.1551 127.082L37.9819 127.049L38.3745 127.354L39.171 127.737L39.8297 128.187L40.3242 128.592L40.7338 128.888L41.0396 128.912L41.3378 129.117L42.5364 129.077L42.7893 128.802C42.8818 128.573 43.0913 128.111 43.3555 128.057C43.7783 127.968 43.6009 128.242 43.5443 128.507C43.499 128.717 43.7462 128.672 43.8368 128.763C44.0803 129.007 44.1313 128.731 44.4352 128.816C44.5711 128.854 44.6069 128.952 44.773 128.952C44.9316 128.952 45.024 128.782 45.1373 128.782C45.1694 128.908 45.1411 129.289 45.3071 129.333C45.4166 129.878 45.5299 129.52 45.8998 129.704C46.1358 129.823 45.9659 130.183 46.4132 130.183L46.4208 130.188C46.4208 130.432 46.5453 130.671 46.2056 130.758C46.2056 130.926 46.3339 131.123 46.3811 131.294C46.4019 131.345 46.4472 131.587 46.5623 131.536C46.6114 131.513 46.6454 131.307 46.7379 131.366C47.2362 131.672 47.0078 131.106 47.5193 131.176C47.9912 131.239 47.9081 131.481 47.6042 131.811C47.391 132.04 47.7967 132.216 47.4419 132.464C47.0418 132.744 47.2984 132.907 47.6135 132.907H47.6138C47.7949 132.907 47.993 132.854 48.0987 132.738L48.0986 132.738Z" fill="#FFDB0B"/>
</mask>
<g mask="url(#mask0_1097_27754)">
<rect opacity="0.1" x="2.69467" y="4.74121" width="101.83" height="137.002" fill="black"/>
</g>
</g>
<defs>
<clipPath id="clip0_1097_27754">
<rect width="100" height="100" fill="white"/>
</clipPath>
</defs>
</svg>
