<svg width="115" height="61" viewBox="0 0 115 61" fill="none" xmlns="http://www.w3.org/2000/svg">
<g clip-path="url(#clip0_248_16906)">
<path d="M0.0638428 20.1497L12.5111 7.70242C16.7651 3.44849 23.662 3.44849 27.916 7.70241L32.6608 12.4473C36.9147 16.7012 43.8117 16.7012 48.0657 12.4473L52.8105 7.70242C57.0644 3.44849 63.9614 3.44849 68.2153 7.70241L72.9602 12.4473C77.2141 16.7012 84.1111 16.7012 88.365 12.4473L93.1099 7.70242C97.3638 3.44849 104.261 3.44849 108.515 7.70241L113.26 12.4473C117.514 16.7012 124.411 16.7012 128.664 12.4473L133.409 7.70242C137.663 3.44849 144.56 3.44849 148.814 7.70241L153.559 12.4473C157.813 16.7012 164.71 16.7012 168.964 12.4473L181.411 0" stroke="black" stroke-width="1.30714"/>
<path d="M0.0638428 40.466L12.5111 28.0187C16.7651 23.7648 23.662 23.7648 27.916 28.0187L32.6608 32.7636C36.9147 37.0175 43.8117 37.0175 48.0657 32.7636L52.8105 28.0187C57.0644 23.7648 63.9614 23.7648 68.2153 28.0187L72.9602 32.7636C77.2141 37.0175 84.1111 37.0175 88.365 32.7636L93.1099 28.0187C97.3638 23.7648 104.261 23.7648 108.515 28.0187L113.26 32.7636C117.514 37.0175 124.411 37.0175 128.664 32.7636L133.409 28.0187C137.663 23.7648 144.56 23.7648 148.814 28.0187L153.559 32.7636C157.813 37.0175 164.71 37.0175 168.964 32.7636L181.411 20.3163" stroke="black" stroke-width="1.30714"/>
<path d="M0.0638428 60.7823L12.5111 48.335C16.7651 44.0811 23.662 44.0811 27.916 48.335L32.6608 53.0799C36.9147 57.3338 43.8117 57.3338 48.0657 53.0799L52.8105 48.335C57.0644 44.0811 63.9614 44.0811 68.2153 48.335L72.9602 53.0799C77.2141 57.3338 84.1111 57.3338 88.365 53.0799L93.1099 48.335C97.3638 44.0811 104.261 44.0811 108.515 48.335L113.26 53.0799C117.514 57.3338 124.411 57.3338 128.664 53.0799L133.409 48.335C137.663 44.0811 144.56 44.0811 148.814 48.335L153.559 53.0799C157.813 57.3338 164.71 57.3338 168.964 53.0799L181.411 40.6326" stroke="black" stroke-width="1.30714"/>
</g>
<defs>
<clipPath id="clip0_248_16906">
<rect width="115" height="61" fill="white"/>
</clipPath>
</defs>
</svg>
